<svg width="76" height="76" viewBox="0 0 76 76" fill="none" xmlns="http://www.w3.org/2000/svg">
<g clip-path="url(#clip0_2_562)">
<path d="M64.3514 23.3971C63.3064 22.4709 62.2139 21.5209 61.9408 20.6896C61.6439 19.7871 61.9764 18.3265 62.2852 16.9134C62.7602 14.7996 63.247 12.6028 62.0595 10.9759C60.8602 9.33714 58.6158 9.12339 56.4427 8.92151C55.0177 8.79089 53.5452 8.64839 52.7852 8.10214C52.0489 7.56776 51.467 6.21401 50.9089 4.91964C50.042 2.90089 49.1395 0.810889 47.1802 0.181514C45.3039 -0.424112 43.392 0.704014 41.5395 1.79651C40.2927 2.53276 38.9864 3.30464 38.0008 3.30464C37.0152 3.30464 35.7089 2.53276 34.4502 1.78464C32.5977 0.692139 30.6977 -0.435987 28.8095 0.169639C26.8502 0.810889 25.9477 2.88901 25.0808 4.90776C24.5227 6.21401 23.9408 7.55589 23.2045 8.09026C22.4564 8.63651 20.972 8.77901 19.547 8.90964C17.3739 9.11151 15.1295 9.32526 13.9302 10.964C12.7427 12.5909 13.2295 14.7759 13.7045 16.9015C14.0133 18.3146 14.3458 19.7634 14.0489 20.6778C13.7758 21.5209 12.6952 22.4709 11.6383 23.3853C10.047 24.7746 8.25391 26.354 8.25391 28.4559C8.25391 30.5459 10.0589 32.1253 11.6502 33.5265C12.6952 34.4528 13.7877 35.4028 14.0608 36.234C14.3577 37.1365 14.0252 38.5971 13.7164 40.0103C13.2414 42.124 12.7545 44.3209 13.942 45.9478C15.1414 47.5865 17.3858 47.8003 19.5589 48.0021C19.7133 48.014 19.8677 48.0259 20.0339 48.0496L11.9827 69.9828C11.8402 70.3746 11.9233 70.814 12.1964 71.1346C12.4695 71.4553 12.897 71.5978 13.3008 71.5028L20.4258 69.9828L25.1758 75.5878C25.4014 75.849 25.722 75.9915 26.0545 75.9915C26.1258 75.9915 26.1852 75.9915 26.2564 75.9678C26.6602 75.8965 26.9927 75.6115 27.1352 75.2315L34.4383 55.1509C35.697 54.4028 37.0033 53.6309 37.9889 53.6309C38.9745 53.6309 40.2808 54.4028 41.5395 55.1509H41.5514L48.8664 75.2434C49.0089 75.6234 49.3414 75.9084 49.7452 75.9796C49.8164 76.0034 49.8877 76.0034 49.947 76.0034C50.2795 76.0034 50.6002 75.8609 50.8258 75.5996L55.5877 69.9946L62.7008 71.5146C63.1045 71.5978 63.532 71.4553 63.8052 71.1465C64.0783 70.8259 64.1614 70.3865 64.0189 69.9946L55.9795 48.0615C56.1339 48.0496 56.2883 48.0378 56.4427 48.014C58.6158 47.8121 60.8602 47.5984 62.0595 45.9596C63.247 44.3328 62.7602 42.1478 62.2852 40.0221C61.9764 38.609 61.6439 37.1603 61.9408 36.2459C62.2139 35.4028 63.2945 34.4528 64.3514 33.5384C65.9427 32.149 67.7358 30.5696 67.7358 28.4678C67.7358 26.3659 65.9427 24.7865 64.3514 23.3971ZM25.6508 72.5953L21.7439 67.9759C21.4708 67.6553 21.0433 67.5009 20.6277 67.5959L14.8683 68.819L22.3495 48.4296C22.6939 48.5365 22.9908 48.6553 23.2164 48.8215C23.9527 49.3559 24.5345 50.7096 25.0927 52.004C25.9595 54.0228 26.862 56.1128 28.8214 56.7421C29.1895 56.8609 29.5577 56.9084 29.9258 56.9084C30.4364 56.9084 30.947 56.8015 31.4577 56.6353L25.6508 72.5953ZM61.1452 68.819L55.3977 67.5959C54.982 67.5128 54.5545 67.6553 54.2814 67.9759L50.3627 72.5953L44.5558 56.6471C45.4345 56.9321 46.3133 57.039 47.192 56.754C49.1514 56.1246 50.0539 54.0346 50.9208 52.0159C51.4789 50.7096 52.0608 49.3678 52.797 48.8334C53.0227 48.6671 53.3314 48.5365 53.6758 48.4415L61.1452 68.819ZM62.8314 31.8046C61.5489 32.9328 60.2189 34.0965 59.7439 35.5334C59.257 37.0415 59.6489 38.8109 60.0289 40.5209C60.3852 42.1359 60.7652 43.8103 60.1952 44.594C59.6133 45.4015 57.8914 45.5559 56.2289 45.7103C54.4952 45.8765 52.702 46.0428 51.4314 46.9571C50.1845 47.8596 49.472 49.5103 48.7952 51.0896C48.1302 52.6334 47.4414 54.2365 46.4795 54.5571C45.6602 54.8184 44.3658 54.1178 43.0595 53.3578C43.0239 53.334 42.9883 53.3103 42.9408 53.2865C42.8695 53.239 42.7983 53.2034 42.7152 53.1559C41.1952 52.2534 39.6158 51.3271 38.0008 51.3271C36.3858 51.3271 34.8064 52.2653 33.2745 53.1678C33.2033 53.2153 33.1202 53.2509 33.0489 53.2984C33.0133 53.3103 32.9777 53.3459 32.942 53.3578C31.6477 54.1178 30.3533 54.8421 29.5102 54.569C28.5483 54.2603 27.8595 52.6571 27.1945 51.1134C26.5177 49.5221 25.8052 47.8834 24.5583 46.969C23.2995 46.0546 21.4945 45.8765 19.7608 45.7221C18.0983 45.5678 16.3764 45.4015 15.7945 44.6059C15.2245 43.8221 15.5927 42.1478 15.9608 40.5328C16.3408 38.8228 16.7327 37.0534 16.2458 35.5453C15.7827 34.1084 14.4527 32.9446 13.1702 31.8165C11.8877 30.6884 10.5695 29.5365 10.5695 28.4796C10.5695 27.4228 11.8995 26.2709 13.1702 25.1428C14.4527 24.0146 15.7827 22.8509 16.2577 21.414C16.7445 19.9059 16.3527 18.1365 15.9727 16.4265C15.6164 14.8115 15.2364 13.1371 15.8064 12.3534C16.3883 11.5459 18.1102 11.3915 19.7727 11.2371C21.5064 11.0709 23.2995 10.9046 24.5702 9.99026C25.817 9.08776 26.5295 7.43714 27.2064 5.85776C27.8714 4.31401 28.5602 2.71089 29.522 2.39026C29.6408 2.35464 29.7714 2.33089 29.9139 2.33089C30.8045 2.33089 32.0633 3.06714 33.2745 3.79151C34.8064 4.69401 36.3858 5.63214 38.0008 5.63214C39.6158 5.63214 41.1952 4.69401 42.727 3.79151C44.1402 2.96026 45.5889 2.09339 46.4914 2.39026C47.4533 2.69901 48.142 4.30214 48.807 5.85776C49.4839 7.44901 50.1964 9.08776 51.4433 9.99026C52.702 10.9046 54.507 11.0828 56.2408 11.2371C57.9033 11.3915 59.6252 11.5578 60.207 12.3534C60.777 13.1371 60.4089 14.8115 60.0408 16.4265C59.6608 18.1365 59.2689 19.9059 59.7558 21.414C60.2189 22.8509 61.5489 24.0265 62.8314 25.1428C64.1139 26.2709 65.432 27.4228 65.432 28.4796C65.432 29.5128 64.1139 30.6765 62.8314 31.8046Z" fill="white"/>
<path d="M38.0009 10.2891C27.9784 10.2891 19.8203 18.4472 19.8203 28.4697C19.8203 38.4922 27.9784 46.6503 38.0009 46.6503C48.0234 46.6503 56.1816 38.4922 56.1816 28.4697C56.1816 18.4472 48.0234 10.2891 38.0009 10.2891ZM38.0009 44.3466C29.2491 44.3466 22.1241 37.2216 22.1241 28.4697C22.1241 19.7178 29.2491 12.5928 38.0009 12.5928C46.7528 12.5928 53.8778 19.7178 53.8778 28.4697C53.8778 37.2216 46.7528 44.3466 38.0009 44.3466Z" fill="white"/>
<path d="M42.0511 22.8831L39.0349 16.7675C38.643 15.9838 37.3605 15.9838 36.9686 16.7675L33.9524 22.8831L27.1955 23.8687C26.7561 23.9281 26.3999 24.2369 26.2692 24.6525C26.1386 25.0681 26.2455 25.5312 26.5661 25.8281L31.4586 30.59L30.3067 37.3112C30.2355 37.7387 30.4136 38.1781 30.7699 38.4394C31.1261 38.7006 31.6011 38.7362 31.9811 38.5225L38.0017 35.3519L44.0461 38.5225C44.2124 38.6056 44.4024 38.6531 44.5805 38.6531C44.818 38.6531 45.0555 38.5819 45.2574 38.4275C45.6136 38.1662 45.7917 37.7387 45.7205 37.2994L44.5686 30.5781L49.4611 25.8162C49.7699 25.5075 49.8886 25.0562 49.758 24.6406C49.6274 24.225 49.2592 23.9162 48.8317 23.8569L42.0511 22.8831ZM42.5142 29.3669C42.2411 29.6281 42.1224 30.0081 42.1817 30.3881L43.0486 35.4112L38.5361 33.0362C38.3699 32.9531 38.1799 32.9056 38.0017 32.9056C37.8236 32.9056 37.6336 32.9531 37.4674 33.0362L32.9549 35.4112L33.8217 30.3881C33.8811 30.02 33.7624 29.6281 33.4892 29.3669L29.8436 25.8044L34.8905 25.0681C35.2705 25.0087 35.5911 24.7831 35.7574 24.4387L38.0136 19.8669L40.2699 24.4387C40.4361 24.7831 40.7567 25.0087 41.1367 25.0681L46.1836 25.8044L42.5142 29.3669Z" fill="white"/>
</g>
<defs>
<clipPath id="clip0_2_562">
<rect width="76" height="76" fill="white"/>
</clipPath>
</defs>
</svg>
