<svg width="42" height="42" viewBox="0 0 42 42" fill="none" xmlns="http://www.w3.org/2000/svg">
<g clip-path="url(#clip0_2_337)">
<path d="M9.05158 11.4841C9.05158 8.94159 11.1202 6.87298 13.663 6.87298C16.2054 6.87298 18.2744 8.94159 18.2744 11.4841V15.2003C19.5552 14.8086 20.49 13.6156 20.49 12.2079V3.21435C20.49 1.48925 19.0864 0.0859375 17.3613 0.0859375H9.96467C8.23957 0.0859375 6.83594 1.48925 6.83594 3.21435V12.2079C6.83594 13.6156 7.77043 14.8086 9.05158 15.2003V11.4841Z" fill="#ED1A24"/>
<path d="M32.6894 0.0859375H25.2925C23.5674 0.0859375 22.1641 1.48925 22.1641 3.21435V12.2079C22.1641 13.933 23.5674 15.3363 25.2925 15.3363H32.6894C34.4145 15.3363 35.8181 13.933 35.8181 12.2079V3.21435C35.8181 1.48925 34.4145 0.0859375 32.6894 0.0859375Z" fill="#126BAB"/>
<path d="M26.9614 19.5211C25.7369 19.5211 24.7448 20.5136 24.7448 21.7377V20.6086C24.7448 19.3845 23.7524 18.3921 22.5279 18.3921C21.3038 18.3921 20.3113 19.3842 20.3113 20.6086V19.659C20.3113 18.4947 19.4137 17.541 18.273 17.45C18.2141 17.4456 18.1549 17.4424 18.0948 17.4424C17.2012 17.4424 16.4317 17.9717 16.0809 18.7334C15.9512 19.0152 15.8782 19.3284 15.8782 19.659V11.4822C15.8782 10.2581 14.8857 9.26562 13.6616 9.26562C12.4374 9.26562 11.445 10.2581 11.445 11.4822V30.5121L11.349 30.4999L9.98342 24.6549C9.70477 23.4628 8.51241 22.722 7.32037 23.0006C6.0685 23.0006 5.27726 23.9981 5.56189 25.2172L7.14531 31.9939C7.97338 37.296 12.2595 41.353 12.2595 41.353H25.7266C27.9768 37.9305 29.1761 33.9242 29.1768 29.828L29.178 21.7377C29.178 20.5136 28.1856 19.5211 26.9614 19.5211Z" fill="#051460"/>
</g>
<defs>
<clipPath id="clip0_2_337">
<rect width="41.2689" height="41.2689" fill="white" transform="translate(0.0234375 0.0859375)"/>
</clipPath>
</defs>
</svg>
