<svg width="44" height="43" viewBox="0 0 44 43" fill="none" xmlns="http://www.w3.org/2000/svg">
<g clip-path="url(#clip0_2_352)">
<path d="M38.0374 5.36078V6.60083L35.5573 9.08093H3.31604L0.835938 6.60083V5.36078C0.835938 3.30221 2.49752 1.64062 4.55609 1.64062H34.3173C36.3759 1.64062 38.0374 3.30221 38.0374 5.36078Z" fill="#17ACE8"/>
<path d="M38.0383 5.36078V6.60083L35.5582 9.08093H19.4375V1.64062H34.3181C36.3767 1.64062 38.0383 3.30221 38.0383 5.36078Z" fill="#1689FC"/>
<path d="M38.0374 6.60156V11.5618L35.5573 14.0419H3.31604L0.835938 11.5618V6.60156H38.0374Z" fill="#08469C"/>
<path d="M38.0383 6.60156V11.5618L35.5582 14.0419H19.4375V6.60156H38.0383Z" fill="#063E8B"/>
<path d="M38.0374 11.5625V27.6832C38.0374 29.7417 36.3759 31.4033 34.3173 31.4033H4.55609C2.49752 31.4033 0.835938 29.7417 0.835938 27.6832V11.5625H38.0374Z" fill="#17ACE8"/>
<path d="M38.0383 11.5625V27.6832C38.0383 29.7417 36.3767 31.4033 34.3181 31.4033H19.4375V11.5625H38.0383Z" fill="#1689FC"/>
<path d="M14.4772 21.4801H7.03693C6.35151 21.4801 5.79688 20.9255 5.79688 20.2401C5.79688 19.5546 6.35151 19 7.03693 19H14.4772C15.1626 19 15.7173 19.5546 15.7173 20.2401C15.7173 20.9255 15.1626 21.4801 14.4772 21.4801Z" fill="#B7E0F6"/>
<path d="M14.4772 26.441H7.03693C6.35151 26.441 5.79688 25.8864 5.79688 25.201C5.79688 24.5156 6.35151 23.9609 7.03693 23.9609H14.4772C15.1626 23.9609 15.7173 24.5156 15.7173 25.201C15.7173 25.8864 15.1626 26.441 14.4772 26.441Z" fill="#B7E0F6"/>
<path d="M30.7599 16.5234C23.9148 16.5234 18.3594 22.0789 18.3594 28.9239C18.3594 35.769 23.9148 41.3244 30.7599 41.3244C37.605 41.3244 43.1604 35.769 43.1604 28.9239C43.1604 22.0789 37.605 16.5234 30.7599 16.5234Z" fill="#ED1A24"/>
<path d="M43.1622 28.9239C43.1622 35.769 37.6068 41.3244 30.7617 41.3244V16.5234C37.6068 16.5234 43.1622 22.0789 43.1622 28.9239Z" fill="#C10D15"/>
<path d="M36.5908 27.3111L30.7627 33.1395L30.3906 33.5114C30.1674 33.7595 29.845 33.8835 29.5226 33.8835C29.2002 33.8835 28.8778 33.7595 28.6547 33.5114L24.9345 29.7912C24.4385 29.32 24.4385 28.5264 24.9345 28.0552C25.4057 27.5592 26.1992 27.5592 26.6705 28.0552L29.5227 30.8825L30.7628 29.6424L34.855 25.5751C35.3262 25.0791 36.1197 25.0791 36.591 25.5751C37.0869 26.0463 37.0869 26.8399 36.5908 27.3111Z" fill="#FFF4F4"/>
<path d="M36.5899 27.3111L30.7617 33.1395V29.6424L34.854 25.5751C35.3252 25.0791 36.1187 25.0791 36.59 25.5751C37.086 26.0463 37.086 26.8399 36.5899 27.3111Z" fill="white"/>
</g>
<defs>
<clipPath id="clip0_2_352">
<rect width="42.327" height="42.327" fill="white" transform="translate(0.835938 0.320312)"/>
</clipPath>
</defs>
</svg>
