<svg width="11" height="10" viewBox="0 0 11 10" fill="none" xmlns="http://www.w3.org/2000/svg">
<path d="M3.12172 2.59047H3.25368C3.45421 2.59047 3.61677 2.42786 3.61677 2.22738V1.22541V0.85062C3.61677 0.650142 3.45421 0.487549 3.25368 0.487549H3.12172C2.92121 0.487549 2.75865 0.650142 2.75865 0.85062V1.22543V2.22738C2.75865 2.42786 2.92121 2.59047 3.12172 2.59047Z" fill="white"/>
<path d="M7.77911 2.58315H7.91106C8.11158 2.58315 8.27413 2.42056 8.27413 2.22006V1.13198V0.843277C8.27413 0.642818 8.11158 0.480225 7.91106 0.480225H7.77911C7.57855 0.480225 7.416 0.642818 7.416 0.843277V1.13198V2.22004C7.41604 2.42056 7.57859 2.58315 7.77911 2.58315Z" fill="white"/>
<path d="M9.4981 1.22217H8.56625V2.31022C8.56625 2.67318 8.27098 2.87337 7.90806 2.87337H7.7761C7.41315 2.87337 7.11788 2.57809 7.11788 2.21513V1.22217H3.90914V2.22412C3.90914 2.58708 3.61387 2.88237 3.25091 2.88237H3.11896C2.75602 2.88237 2.46075 2.58708 2.46075 2.22412V1.22217H1.45537C1.1299 1.22217 0.865097 1.48697 0.865097 1.81246V8.94513C0.865097 9.27062 1.1299 9.53542 1.45537 9.53542H9.4981C9.82357 9.53542 10.0884 9.27062 10.0884 8.94513V1.81246C10.0884 1.48699 9.82357 1.22217 9.4981 1.22217ZM9.4981 8.94513H1.45539L1.45537 3.55872H9.49821L9.49852 8.94511C9.49848 8.94511 9.49836 8.94513 9.4981 8.94513Z" fill="white"/>
<path d="M5.78515 5.37069H6.84502C6.88703 5.37069 6.9211 5.33663 6.9211 5.29462V4.37686C6.9211 4.33484 6.88703 4.30078 6.84502 4.30078H5.78515C5.74314 4.30078 5.70908 4.33484 5.70908 4.37686V5.29462C5.70908 5.33663 5.74314 5.37069 5.78515 5.37069Z" fill="white"/>
<path d="M7.50885 5.37069H8.56871C8.61073 5.37069 8.64479 5.33663 8.64479 5.29462V4.37686C8.64479 4.33484 8.61073 4.30078 8.56871 4.30078H7.50885C7.46683 4.30078 7.43277 4.33484 7.43277 4.37686V5.29462C7.43277 5.33663 7.46683 5.37069 7.50885 5.37069Z" fill="white"/>
<path d="M2.32096 6.86925H3.38081C3.42283 6.86925 3.45689 6.83518 3.45689 6.79317V5.87539C3.45689 5.83338 3.42283 5.79932 3.38081 5.79932H2.32096C2.27895 5.79932 2.24489 5.83338 2.24489 5.87539V6.79317C2.24489 6.83518 2.27895 6.86925 2.32096 6.86925Z" fill="white"/>
<path d="M4.05096 6.86925H5.11081C5.15282 6.86925 5.18689 6.83518 5.18689 6.79317V5.87539C5.18689 5.83338 5.15282 5.79932 5.11081 5.79932H4.05096C4.00895 5.79932 3.97488 5.83338 3.97488 5.87539V6.79317C3.97488 6.83518 4.00895 6.86925 4.05096 6.86925Z" fill="white"/>
<path d="M5.78515 6.86925H6.845C6.88701 6.86925 6.92108 6.83518 6.92108 6.79317V5.87539C6.92108 5.83338 6.88701 5.79932 6.845 5.79932H5.78515C5.74314 5.79932 5.70908 5.83338 5.70908 5.87539V6.79317C5.70908 6.83518 5.74314 6.86925 5.78515 6.86925Z" fill="white"/>
<path d="M7.50885 6.86925H8.56871C8.61073 6.86925 8.64479 6.83518 8.64479 6.79317V5.87539C8.64479 5.83338 8.61073 5.79932 8.56871 5.79932H7.50885C7.46683 5.79932 7.43277 5.83338 7.43277 5.87539V6.79317C7.43277 6.83518 7.46683 6.86925 7.50885 6.86925Z" fill="white"/>
<path d="M3.38079 7.30493H2.32096C2.27895 7.30493 2.24489 7.33899 2.24489 7.38101V8.29879C2.24489 8.3408 2.27895 8.37486 2.32096 8.37486H3.38081C3.42283 8.37486 3.45689 8.3408 3.45689 8.29879V7.38101C3.45687 7.33899 3.42281 7.30493 3.38079 7.30493Z" fill="white"/>
<path d="M5.11081 7.30542H4.05096C4.00895 7.30542 3.97488 7.33948 3.97488 7.3815V8.29927C3.97488 8.34129 4.00895 8.37535 4.05096 8.37535H5.11081C5.15282 8.37535 5.18689 8.34129 5.18689 8.29927V7.3815C5.18689 7.33948 5.15282 7.30542 5.11081 7.30542Z" fill="white"/>
<path d="M6.84502 7.30493H5.78515C5.74314 7.30493 5.70908 7.33899 5.70908 7.38101V8.29879C5.70908 8.3408 5.74314 8.37486 5.78515 8.37486H6.84502C6.88703 8.37486 6.9211 8.3408 6.9211 8.29879V7.38101C6.9211 7.33899 6.88703 7.30493 6.84502 7.30493Z" fill="white"/>
<path d="M8.56871 7.30493H7.50885C7.46683 7.30493 7.43277 7.33899 7.43277 7.38101V8.29879C7.43277 8.3408 7.46683 8.37486 7.50885 8.37486H8.56871C8.61073 8.37486 8.64479 8.3408 8.64479 8.29879V7.38101C8.64479 7.33899 8.61073 7.30493 8.56871 7.30493Z" fill="white"/>
</svg>
