<svg width="9" height="11" viewBox="0 0 9 11" fill="none" xmlns="http://www.w3.org/2000/svg">
<path d="M6.81162 3.73018C7.0437 3.52844 7.17564 3.23571 7.17564 2.92779V1.3018H7.78235C7.9492 1.3018 8.08572 1.16529 8.08572 0.998435C8.08572 0.831582 7.9492 0.695068 7.78238 0.695068H7.17567H1.41185H0.805137C0.638284 0.695068 0.50177 0.831582 0.50177 0.998435C0.50177 1.16529 0.638284 1.3018 0.805137 1.3018H1.41185V3.07646C1.41185 3.38589 1.54533 3.68014 1.78044 3.88187L3.12734 5.0498C3.22897 5.13778 3.28661 5.26215 3.28661 5.39714C3.28661 5.53214 3.23048 5.65651 3.12734 5.74449L1.78044 6.9109C1.54533 7.11415 1.41185 7.4084 1.41185 7.71783V9.49249H0.805137C0.638284 9.49249 0.50177 9.629 0.50177 9.79585C0.50177 9.9627 0.638284 10.0992 0.805137 10.0992H1.41185H7.17564H7.78235C7.9492 10.0992 8.08572 9.9627 8.08572 9.79585C8.08572 9.629 7.9492 9.49249 7.78235 9.49249H7.17564V7.86649C7.17564 7.55858 7.04216 7.26585 6.81162 7.06411L5.3009 5.74298C5.19927 5.65499 5.14468 5.53214 5.14468 5.39714C5.14468 5.26215 5.20081 5.1393 5.3009 5.05131L6.81162 3.73018ZM4.90197 6.1995L6.41269 7.52064C6.5128 7.60862 6.56891 7.7345 6.56891 7.86647V9.49246H2.01855V7.71781C2.01855 7.58432 2.0762 7.45844 2.17631 7.37046L3.52321 6.20405C3.75681 6.0008 3.89181 5.70806 3.89181 5.39863C3.89181 5.08921 3.75832 4.79496 3.52321 4.59322L2.17631 3.4253C2.0762 3.33731 2.01855 3.20992 2.01855 3.07643V1.30178H6.56893V2.92777C6.56893 3.05974 6.51129 3.18561 6.41118 3.2736L4.90045 4.59473C4.66989 4.79647 4.53643 5.08921 4.53643 5.39712C4.53643 5.70503 4.66992 5.99777 4.90197 6.1995Z" fill="white"/>
<path d="M6.26976 2.92942V2.68673C6.26976 2.59268 6.19392 2.51685 6.10139 2.51685H2.49448C2.40195 2.51685 2.32611 2.59268 2.32611 2.68521V3.07806C2.32611 3.16756 2.36554 3.25249 2.43229 3.31014L3.75797 4.45987C3.92179 4.60245 4.05679 4.77991 4.12807 4.98468C4.30099 5.47612 4.14932 5.9979 3.77921 6.31794L2.43231 7.48586C2.36557 7.54502 2.32614 7.62844 2.32614 7.71794V9.05423C2.32614 9.13007 2.38681 9.19074 2.46113 9.19074H6.13481C6.20913 9.19074 6.26981 9.13007 6.26981 9.05575V7.8681C6.26981 7.77859 6.23189 7.69518 6.16515 7.63602L4.68022 6.33613C4.51791 6.19355 4.38445 6.0176 4.31162 5.81435C4.13719 5.32442 4.28735 4.80416 4.65442 4.48109L6.16515 3.15996C6.23184 3.10233 6.26976 3.01738 6.26976 2.92942Z" fill="white"/>
</svg>
