<svg width="8" height="11" viewBox="0 0 8 11" fill="none" xmlns="http://www.w3.org/2000/svg">
<path d="M6.56388 3.72993C6.79596 3.5282 6.9279 3.23546 6.9279 2.92755V1.30156H7.53461C7.70146 1.30156 7.83798 1.16504 7.83798 0.998191C7.83798 0.831338 7.70146 0.694824 7.53464 0.694824H6.92793H1.1641H0.557395C0.390542 0.694824 0.254028 0.831338 0.254028 0.998191C0.254028 1.16504 0.390542 1.30156 0.557395 1.30156H1.1641V3.07621C1.1641 3.38564 1.29759 3.67989 1.5327 3.88163L2.8796 5.04955C2.98122 5.13754 3.03887 5.2619 3.03887 5.3969C3.03887 5.5319 2.98274 5.65626 2.8796 5.74425L1.5327 6.91065C1.29759 7.11391 1.1641 7.40816 1.1641 7.71759V9.49224H0.557395C0.390542 9.49224 0.254028 9.62875 0.254028 9.79561C0.254028 9.96246 0.390542 10.099 0.557395 10.099H1.1641H6.9279H7.53461C7.70146 10.099 7.83798 9.96246 7.83798 9.79561C7.83798 9.62875 7.70146 9.49224 7.53461 9.49224H6.9279V7.86625C6.9279 7.55834 6.79442 7.2656 6.56388 7.06386L5.05316 5.74273C4.95153 5.65475 4.89694 5.5319 4.89694 5.3969C4.89694 5.2619 4.95307 5.13905 5.05316 5.05107L6.56388 3.72993ZM4.65423 6.19926L6.16495 7.52039C6.26506 7.60838 6.32117 7.73426 6.32117 7.86623V9.49222H1.77081V7.71756C1.77081 7.58408 1.82846 7.4582 1.92857 7.37021L3.27547 6.20381C3.50907 6.00055 3.64406 5.70782 3.64406 5.39839C3.64406 5.08896 3.51058 4.79471 3.27547 4.59297L1.92857 3.42505C1.82846 3.33707 1.77081 3.20967 1.77081 3.07619V1.30153H6.32119V2.92752C6.32119 3.05949 6.26355 3.18537 6.16343 3.27336L4.65271 4.59449C4.42215 4.79623 4.28869 5.08896 4.28869 5.39687C4.28869 5.70479 4.42217 5.99752 4.65423 6.19926Z" fill="white"/>
<path d="M6.02203 2.92917V2.68649C6.02203 2.59244 5.94619 2.5166 5.85366 2.5166H2.24675C2.15422 2.5166 2.07838 2.59244 2.07838 2.68497V3.07781C2.07838 3.16732 2.11782 3.25225 2.18456 3.30989L3.51024 4.45963C3.67406 4.6022 3.80906 4.77967 3.88035 4.98444C4.05326 5.47588 3.90159 5.99766 3.53148 6.3177L2.18458 7.48562C2.11784 7.54478 2.07841 7.62819 2.07841 7.7177V9.05399C2.07841 9.12982 2.13909 9.1905 2.21341 9.1905H5.88708C5.9614 9.1905 6.02208 9.12982 6.02208 9.0555V7.86785C6.02208 7.77835 5.98416 7.69494 5.91742 7.63577L4.43249 6.33588C4.27018 6.19331 4.13673 6.01736 4.0639 5.81411C3.88947 5.32418 4.03962 4.80392 4.4067 4.48085L5.91742 3.15971C5.98411 3.10209 6.02203 3.01714 6.02203 2.92917Z" fill="white"/>
</svg>
