<svg width="10" height="10" viewBox="0 0 10 10" fill="none" xmlns="http://www.w3.org/2000/svg">
<path d="M9.8355 5.021L6.34651 1.06458C6.24691 0.951639 6.11417 0.889648 5.97263 0.889648C5.83093 0.889648 5.69827 0.951728 5.59867 1.06458L5.2819 1.42387C5.18238 1.53663 5.12756 1.68724 5.12756 1.84783C5.12756 2.00832 5.18238 2.16401 5.2819 2.27677L7.31733 4.58992H0.850671C0.55911 4.58992 0.328735 4.84874 0.328735 5.17945V5.68739C0.328735 6.0181 0.55911 6.30302 0.850671 6.30302H7.34042L5.28198 8.62908C5.18246 8.74202 5.12764 8.88853 5.12764 9.04912C5.12764 9.20953 5.18246 9.35818 5.28198 9.47103L5.59875 9.82917C5.69835 9.9421 5.83101 10.0036 5.97271 10.0036C6.11425 10.0036 6.24699 9.9413 6.34658 9.82836L9.83558 5.87203C9.93541 5.75874 9.99032 5.6075 9.98992 5.44674C9.99024 5.28544 9.93541 5.13411 9.8355 5.021Z" fill="white"/>
</svg>
