<svg width="41" height="47" viewBox="0 0 41 47" fill="none" xmlns="http://www.w3.org/2000/svg">
<path d="M31.0401 10.2011H31.0164C30.6452 4.59531 25.9671 0.148438 20.2694 0.148438C14.5717 0.148438 9.89361 4.59531 9.52238 10.2011H9.49869C4.35172 10.2011 0.164062 14.3888 0.164062 19.5357C0.164062 24.4414 3.96756 28.4747 8.78064 28.8431V42.5133C8.78064 44.4929 10.3912 46.1035 12.3709 46.1035H28.1679C30.1476 46.1035 31.7582 44.4929 31.7582 42.5133V28.8431C36.5713 28.4747 40.3748 24.4414 40.3748 19.5357C40.3748 14.3888 36.1871 10.2011 31.0401 10.2011Z" fill="url(#paint0_linear_2_375)"/>
<path d="M31.7538 23.0447C31.7416 22.9362 31.6145 21.9654 30.9539 21.3055L26.3986 16.7502C25.7387 16.0896 24.7679 15.9618 24.6594 15.9503C24.6329 15.9467 24.6056 15.9453 24.5783 15.9453H12.3715C10.3918 15.9453 8.78125 17.5559 8.78125 19.5356V42.5131C8.78125 44.4927 10.3918 46.1033 12.3715 46.1033H28.1685C30.1482 46.1033 31.7588 44.4927 31.7588 42.5131V23.1258C31.7588 23.0985 31.7574 23.0712 31.7538 23.0447Z" fill="url(#paint1_linear_2_375)"/>
<path d="M17.1209 30.7905V38.1316H23.4132V30.7905H25.5107L20.2671 25.5469L15.0234 30.7905H17.1209Z" fill="#ED1A24"/>
<path d="M30.953 21.3057L26.3977 16.7504C25.7378 16.0898 24.767 15.962 24.6586 15.9505C24.4561 15.9254 24.2521 15.9922 24.0992 16.1279C23.9463 16.2636 23.8594 16.4589 23.8594 16.6635V20.2538C23.8594 22.2334 25.47 23.844 27.4496 23.844H31.0399C31.2445 23.844 31.4398 23.7571 31.5755 23.6042C31.7112 23.4513 31.7759 23.248 31.7529 23.0448C31.7414 22.9357 31.6136 21.9656 30.953 21.3057Z" fill="url(#paint2_linear_2_375)"/>
<defs>
<linearGradient id="paint0_linear_2_375" x1="5.29021" y1="40.5078" x2="35.2486" y2="10.5494" gradientUnits="userSpaceOnUse">
<stop stop-color="#126BAB"/>
<stop offset="1" stop-color="#051460"/>
</linearGradient>
<linearGradient id="paint1_linear_2_375" x1="8.03879" y1="43.2556" x2="30.4713" y2="20.823" gradientUnits="userSpaceOnUse">
<stop stop-color="#B3D8F4"/>
<stop offset="1" stop-color="#D1E7F8"/>
</linearGradient>
<linearGradient id="paint2_linear_2_375" x1="24.912" y1="22.7914" x2="28.6753" y2="19.0281" gradientUnits="userSpaceOnUse">
<stop stop-color="#00969B"/>
<stop offset="1" stop-color="#00D7DF"/>
</linearGradient>
</defs>
</svg>
