<svg width="122" height="295" viewBox="0 0 122 295" fill="none" xmlns="http://www.w3.org/2000/svg">
<g opacity="0.08">
<g style="mix-blend-mode:multiply" opacity="0.6">
<g style="mix-blend-mode:multiply" opacity="0.3">
<path d="M3.26656 293.858H0.429688V239.114C0.429688 212.954 13.3375 202.954 25.8197 193.359C38.1601 183.763 50.926 173.865 50.926 147.402C50.926 120.939 38.1601 111.04 25.8197 101.445C13.3375 91.7483 0.429688 81.8498 0.429688 55.6897V0.945312H3.26656V55.6897C3.26656 81.0418 15.1814 90.3342 27.8055 100.132C40.5714 110.03 53.7629 120.232 53.7629 147.503C53.7629 174.774 40.5714 184.975 27.8055 194.874C15.1814 204.671 3.26656 213.964 3.26656 239.316V294.06V293.858Z" fill="black"/>
</g>
<g style="mix-blend-mode:multiply" opacity="0.3">
<path d="M4.39937 293.858H1.5625V239.114C1.5625 212.954 14.4703 202.954 26.9525 193.359C39.2929 183.763 52.0589 173.865 52.0589 147.402C52.0589 120.939 39.2929 111.04 26.9525 101.445C14.4703 91.7483 1.5625 81.8498 1.5625 55.6897V0.945312H4.39937V55.6897C4.39937 81.0418 16.3142 90.3342 28.9383 100.132C41.7043 110.03 54.8958 120.232 54.8958 147.503C54.8958 174.774 41.7043 184.975 28.9383 194.874C16.3142 204.671 4.39937 213.964 4.39937 239.316V294.06V293.858Z" fill="#040404"/>
</g>
<g style="mix-blend-mode:multiply" opacity="0.3">
<path d="M5.53219 293.858H2.69531V239.114C2.69531 212.954 15.6031 202.954 28.0854 193.359C40.4258 183.763 53.1917 173.865 53.1917 147.402C53.1917 120.939 40.4258 111.04 28.0854 101.445C15.6031 91.7483 2.69531 81.8498 2.69531 55.6897V0.945312H5.53219V55.6897C5.53219 81.0418 17.4471 90.3342 30.0712 100.132C42.8371 110.03 56.0286 120.232 56.0286 147.503C56.0286 174.774 42.8371 184.975 30.0712 194.874C17.4471 204.671 5.53219 213.964 5.53219 239.316V294.06V293.858Z" fill="#080808"/>
</g>
<g style="mix-blend-mode:multiply" opacity="0.3">
<path d="M6.67281 293.858H3.83594V239.114C3.83594 212.954 16.7437 202.954 29.226 193.359C41.5664 183.763 54.3323 173.865 54.3323 147.402C54.3323 120.939 41.5664 111.04 29.226 101.445C16.7437 91.7483 3.83594 81.8498 3.83594 55.6897V0.945312H6.67281V55.6897C6.67281 81.0418 18.5877 90.3342 31.2118 100.132C43.9777 110.03 57.1692 120.232 57.1692 147.503C57.1692 174.774 43.9777 184.975 31.2118 194.874C18.5877 204.671 6.67281 213.964 6.67281 239.316V294.06V293.858Z" fill="#0D0D0D"/>
</g>
<g style="mix-blend-mode:multiply" opacity="0.3">
<path d="M7.80562 293.858H4.96875V239.114C4.96875 212.954 17.8765 202.954 30.3588 193.359C42.6992 183.763 55.4651 173.865 55.4651 147.402C55.4651 120.939 42.6992 111.04 30.3588 101.445C17.8765 91.7483 4.96875 81.8498 4.96875 55.6897V0.945312H7.80562V55.6897C7.80562 81.0418 19.7205 90.3342 32.3446 100.132C45.1106 110.03 58.302 120.232 58.302 147.503C58.302 174.774 45.1106 184.975 32.3446 194.874C19.7205 204.671 7.80562 213.964 7.80562 239.316V294.06V293.858Z" fill="#111111"/>
</g>
<g style="mix-blend-mode:multiply" opacity="0.3">
<path d="M8.79781 293.858H5.96094V239.114C5.96094 212.954 18.8687 202.954 31.351 193.359C43.6914 183.763 56.4573 173.865 56.4573 147.402C56.4573 120.939 43.6914 111.04 31.351 101.445C18.8687 91.7483 5.96094 81.8498 5.96094 55.6897V0.945312H8.79781V55.6897C8.79781 81.0418 20.7127 90.3342 33.3368 100.132C46.1027 110.03 59.2942 120.232 59.2942 147.503C59.2942 174.774 46.1027 184.975 33.3368 194.874C20.7127 204.671 8.79781 213.964 8.79781 239.316V294.06V293.858Z" fill="#151515"/>
</g>
<g style="mix-blend-mode:multiply" opacity="0.3">
<path d="M9.93062 293.858H7.09375V239.114C7.09375 212.954 20.0015 202.954 32.4838 193.359C44.8242 183.763 57.5901 173.865 57.5901 147.402C57.5901 120.939 44.8242 111.04 32.4838 101.445C20.0015 91.7483 7.09375 81.8498 7.09375 55.6897V0.945312H9.93062V55.6897C9.93062 81.0418 21.8455 90.3342 34.4696 100.132C47.2356 110.03 60.427 120.232 60.427 147.503C60.427 174.774 47.2356 184.975 34.4696 194.874C21.8455 204.671 9.93062 213.964 9.93062 239.316V294.06V293.858Z" fill="#191919"/>
</g>
<g style="mix-blend-mode:multiply" opacity="0.3">
<path d="M11.0712 293.858H8.23438V239.114C8.23438 212.954 21.1421 202.954 33.6244 193.359C45.9648 183.763 58.7307 173.865 58.7307 147.402C58.7307 120.939 45.9648 111.04 33.6244 101.445C21.1421 91.7483 8.23438 81.8498 8.23438 55.6897V0.945312H11.0712V55.6897C11.0712 81.0418 22.9861 90.3342 35.6102 100.132C48.3761 110.03 61.5676 120.232 61.5676 147.503C61.5676 174.774 48.3761 184.975 35.6102 194.874C22.9861 204.671 11.0712 213.964 11.0712 239.316V294.06V293.858Z" fill="#1D1D1D"/>
</g>
<g style="mix-blend-mode:multiply" opacity="0.3">
<path d="M12.2041 293.858H9.36719V239.114C9.36719 212.954 22.275 202.954 34.7572 193.359C47.0976 183.763 59.8636 173.865 59.8636 147.402C59.8636 120.939 47.0976 111.04 34.7572 101.445C22.275 91.7483 9.36719 81.8498 9.36719 55.6897V0.945312H12.2041V55.6897C12.2041 81.0418 24.1189 90.3342 36.743 100.132C49.5089 110.03 62.7004 120.232 62.7004 147.503C62.7004 174.774 49.5089 184.975 36.743 194.874C24.1189 204.671 12.2041 213.964 12.2041 239.316V294.06V293.858Z" fill="#212121"/>
</g>
<g style="mix-blend-mode:multiply" opacity="0.3">
<path d="M13.3369 293.858H10.5V239.114C10.5 212.954 23.4078 202.954 35.8901 193.359C48.2305 183.763 60.9964 173.865 60.9964 147.402C60.9964 120.939 48.2305 111.04 35.8901 101.445C23.4078 91.7483 10.5 81.8498 10.5 55.6897V0.945312H13.3369V55.6897C13.3369 81.0418 25.2518 90.3342 37.8759 100.132C50.6418 110.03 63.8333 120.232 63.8333 147.503C63.8333 174.774 50.6418 184.975 37.8759 194.874C25.2518 204.671 13.3369 213.964 13.3369 239.316V294.06V293.858Z" fill="#262626"/>
</g>
<g style="mix-blend-mode:multiply" opacity="0.3">
<path d="M14.4697 293.858H11.6328V239.114C11.6328 212.954 24.5406 202.954 37.0228 193.359C49.3632 183.763 62.1292 173.865 62.1292 147.402C62.1292 120.939 49.3632 111.04 37.0228 101.445C24.5406 91.7483 11.6328 81.8498 11.6328 55.6897V0.945312H14.4697V55.6897C14.4697 81.0418 26.3845 90.3342 39.0086 100.132C51.7746 110.03 64.9661 120.232 64.9661 147.503C64.9661 174.774 51.7746 184.975 39.0086 194.874C26.3845 204.671 14.4697 213.964 14.4697 239.316V294.06V293.858Z" fill="#2A2A2A"/>
</g>
<g style="mix-blend-mode:multiply" opacity="0.2">
<path d="M15.6025 293.858H12.7656V239.114C12.7656 212.954 25.6734 202.954 38.1556 193.359C50.4961 183.763 63.262 173.865 63.262 147.402C63.262 120.939 50.4961 111.04 38.1556 101.445C25.6734 91.7483 12.7656 81.8498 12.7656 55.6897V0.945312H15.6025V55.6897C15.6025 81.0418 27.5174 90.3342 40.1415 100.132C52.9074 110.03 66.0989 120.232 66.0989 147.503C66.0989 174.774 52.9074 184.975 40.1415 194.874C27.5174 204.671 15.6025 213.964 15.6025 239.316V294.06V293.858Z" fill="#2E2E2E"/>
</g>
<g style="mix-blend-mode:multiply" opacity="0.2">
<path d="M16.6025 293.858H13.7656V239.114C13.7656 212.954 26.6734 202.954 39.1556 193.359C51.4961 183.763 64.262 173.865 64.262 147.402C64.262 120.939 51.4961 111.04 39.1556 101.445C26.6734 91.7483 13.7656 81.8498 13.7656 55.6897V0.945312H16.6025V55.6897C16.6025 81.0418 28.5174 90.3342 41.1414 100.132C53.9074 110.03 67.0989 120.232 67.0989 147.503C67.0989 174.774 53.9074 184.975 41.1414 194.874C28.5174 204.671 16.6025 213.964 16.6025 239.316V294.06V293.858Z" fill="#323232"/>
</g>
<g style="mix-blend-mode:multiply" opacity="0.2">
<path d="M17.7353 293.858H14.8984V239.114C14.8984 212.954 27.8062 202.954 40.2885 193.359C52.6289 183.763 65.3948 173.865 65.3948 147.402C65.3948 120.939 52.6289 111.04 40.2885 101.445C27.8062 91.7483 14.8984 81.8498 14.8984 55.6897V0.945312H17.7353V55.6897C17.7353 81.0418 29.6502 90.3342 42.2743 100.132C55.0402 110.03 68.2317 120.232 68.2317 147.503C68.2317 174.774 55.0402 184.975 42.2743 194.874C29.6502 204.671 17.7353 213.964 17.7353 239.316V294.06V293.858Z" fill="#363636"/>
</g>
<g style="mix-blend-mode:multiply" opacity="0.2">
<path d="M18.8681 293.858H16.0312V239.114C16.0312 212.954 28.939 202.954 41.4213 193.359C53.7617 183.763 66.5276 173.865 66.5276 147.402C66.5276 120.939 53.7617 111.04 41.4213 101.445C28.939 91.7483 16.0312 81.8498 16.0312 55.6897V0.945312H18.8681V55.6897C18.8681 81.0418 30.783 90.3342 43.4071 100.132C56.173 110.03 69.3645 120.232 69.3645 147.503C69.3645 174.774 56.173 184.975 43.4071 194.874C30.783 204.671 18.8681 213.964 18.8681 239.316V294.06V293.858Z" fill="#3B3B3B"/>
</g>
<g style="mix-blend-mode:multiply" opacity="0.2">
<path d="M20.0048 293.858H17.168V239.114C17.168 212.954 30.0757 202.954 42.558 193.359C54.8984 183.763 67.6643 173.865 67.6643 147.402C67.6643 120.939 54.8984 111.04 42.558 101.445C30.0757 91.7483 17.168 81.8498 17.168 55.6897V0.945312H20.0048V55.6897C20.0048 81.0418 31.9197 90.3342 44.5438 100.132C57.3097 110.03 70.5012 120.232 70.5012 147.503C70.5012 174.774 57.3097 184.975 44.5438 194.874C31.9197 204.671 20.0048 213.964 20.0048 239.316V294.06V293.858Z" fill="#3F3F3F"/>
</g>
<g style="mix-blend-mode:multiply" opacity="0.2">
<path d="M21.1377 293.858H18.3009V239.114C18.3009 212.954 31.2087 202.954 43.6909 193.359C56.0313 183.763 68.7973 173.865 68.7973 147.402C68.7973 120.939 56.0313 111.04 43.6909 101.445C31.2087 91.7483 18.3009 81.8498 18.3009 55.6897V0.945312H21.1377V55.6897C21.1377 81.0418 33.0526 90.3342 45.6767 100.132C58.4427 110.03 71.6341 120.232 71.6341 147.503C71.6341 174.774 58.4427 184.975 45.6767 194.874C33.0526 204.671 21.1377 213.964 21.1377 239.316V294.06V293.858Z" fill="#434343"/>
</g>
<g style="mix-blend-mode:multiply" opacity="0.2">
<path d="M22.2745 293.858H19.4376V239.114C19.4376 212.954 32.3454 202.954 44.8276 193.359C57.168 183.763 69.934 173.865 69.934 147.402C69.934 120.939 57.168 111.04 44.8276 101.445C32.3454 91.7483 19.4376 81.8498 19.4376 55.6897V0.945312H22.2745V55.6897C22.2745 81.0418 34.1893 90.3342 46.8134 100.132C59.5793 110.03 72.7708 120.232 72.7708 147.503C72.7708 174.774 59.5793 184.975 46.8134 194.874C34.1893 204.671 22.2745 213.964 22.2745 239.316V294.06V293.858Z" fill="#474747"/>
</g>
<g style="mix-blend-mode:multiply" opacity="0.2">
<path d="M23.407 293.858H20.5702V239.114C20.5702 212.954 33.4779 202.954 45.9602 193.359C58.3006 183.763 71.0665 173.865 71.0665 147.402C71.0665 120.939 58.3006 111.04 45.9602 101.445C33.4779 91.7483 20.5702 81.8498 20.5702 55.6897V0.945312H23.407V55.6897C23.407 81.0418 35.3219 90.3342 47.946 100.132C60.712 110.03 73.9034 120.232 73.9034 147.503C73.9034 174.774 60.712 184.975 47.946 194.874C35.3219 204.671 23.407 213.964 23.407 239.316V294.06V293.858Z" fill="#4B4B4B"/>
</g>
<g style="mix-blend-mode:multiply" opacity="0.2">
<path d="M24.5438 293.858H21.7069V239.114C21.7069 212.954 34.6146 202.954 47.0969 193.359C59.4373 183.763 72.2032 173.865 72.2032 147.402C72.2032 120.939 59.4373 111.04 47.0969 101.445C34.6146 91.7483 21.7069 81.8498 21.7069 55.6897V0.945312H24.5438V55.6897C24.5438 81.0418 36.4586 90.3342 49.0827 100.132C61.8486 110.03 75.0401 120.232 75.0401 147.503C75.0401 174.774 61.8486 184.975 49.0827 194.874C36.4586 204.671 24.5438 213.964 24.5438 239.316V294.06V293.858Z" fill="#4F4F4F"/>
</g>
<g style="mix-blend-mode:multiply" opacity="0.2">
<path d="M25.5322 293.858H22.6953V239.114C22.6953 212.954 35.6031 202.954 48.0853 193.359C60.4257 183.763 73.1917 173.865 73.1917 147.402C73.1917 120.939 60.4257 111.04 48.0853 101.445C35.6031 91.7483 22.6953 81.8498 22.6953 55.6897V0.945312H25.5322V55.6897C25.5322 81.0418 37.4471 90.3342 50.0712 100.132C62.8371 110.03 76.0286 120.232 76.0286 147.503C76.0286 174.774 62.8371 184.975 50.0712 194.874C37.4471 204.671 25.5322 213.964 25.5322 239.316V294.06V293.858Z" fill="#545454"/>
</g>
<g style="mix-blend-mode:multiply" opacity="0.2">
<path d="M26.6728 293.858H23.8359V239.114C23.8359 212.954 36.7437 202.954 49.226 193.359C61.5664 183.763 74.3323 173.865 74.3323 147.402C74.3323 120.939 61.5664 111.04 49.226 101.445C36.7437 91.7483 23.8359 81.8498 23.8359 55.6897V0.945312H26.6728V55.6897C26.6728 81.0418 38.5877 90.3342 51.2118 100.132C63.9777 110.03 77.1691 120.232 77.1691 147.503C77.1691 174.774 63.9777 184.975 51.2118 194.874C38.5877 204.671 26.6728 213.964 26.6728 239.316V294.06V293.858Z" fill="#585858"/>
</g>
<g style="mix-blend-mode:multiply" opacity="0.2">
<path d="M27.8056 293.858H24.9688V239.114C24.9688 212.954 37.8765 202.954 50.3588 193.359C62.6992 183.763 75.4651 173.865 75.4651 147.402C75.4651 120.939 62.6992 111.04 50.3588 101.445C37.8765 91.7483 24.9688 81.8498 24.9688 55.6897V0.945312H27.8056V55.6897C27.8056 81.0418 39.7205 90.3342 52.3446 100.132C65.1105 110.03 78.302 120.232 78.302 147.503C78.302 174.774 65.1105 184.975 52.3446 194.874C39.7205 204.671 27.8056 213.964 27.8056 239.316V294.06V293.858Z" fill="#5C5C5C"/>
</g>
<g style="mix-blend-mode:multiply" opacity="0.2">
<path d="M28.9384 293.858H26.1016V239.114C26.1016 212.954 39.0094 202.954 51.4916 193.359C63.832 183.763 76.5979 173.865 76.5979 147.402C76.5979 120.939 63.832 111.04 51.4916 101.445C39.0094 91.7483 26.1016 81.8498 26.1016 55.6897V0.945312H28.9384V55.6897C28.9384 81.0418 40.8533 90.3342 53.4774 100.132C66.2434 110.03 79.4348 120.232 79.4348 147.503C79.4348 174.774 66.2434 184.975 53.4774 194.874C40.8533 204.671 28.9384 213.964 28.9384 239.316V294.06V293.858Z" fill="#606060"/>
</g>
<g style="mix-blend-mode:multiply" opacity="0.2">
<path d="M30.0752 293.858H27.2383V239.114C27.2383 212.954 40.1461 202.954 52.6283 193.359C64.9687 183.763 77.7347 173.865 77.7347 147.402C77.7347 120.939 64.9687 111.04 52.6283 101.445C40.1461 91.7483 27.2383 81.8498 27.2383 55.6897V0.945312H30.0752V55.6897C30.0752 81.0418 41.99 90.3342 54.6141 100.132C67.38 110.03 80.5715 120.232 80.5715 147.503C80.5715 174.774 67.38 184.975 54.6141 194.874C41.99 204.671 30.0752 213.964 30.0752 239.316V294.06V293.858Z" fill="#646464"/>
</g>
<g style="mix-blend-mode:multiply" opacity="0.2">
<path d="M31.2041 293.858H28.3672V239.114C28.3672 212.954 41.275 202.954 53.7572 193.359C66.0976 183.763 78.8636 173.865 78.8636 147.402C78.8636 120.939 66.0976 111.04 53.7572 101.445C41.275 91.7483 28.3672 81.8498 28.3672 55.6897V0.945312H31.2041V55.6897C31.2041 81.0418 43.119 90.3342 55.7431 100.132C68.509 110.03 81.7004 120.232 81.7004 147.503C81.7004 174.774 68.509 184.975 55.7431 194.874C43.119 204.671 31.2041 213.964 31.2041 239.316V294.06V293.858Z" fill="#696969"/>
</g>
<g style="mix-blend-mode:multiply" opacity="0.2">
<path d="M32.3447 293.858H29.5078V239.114C29.5078 212.954 42.4156 202.954 54.8978 193.359C67.2382 183.763 80.0041 173.865 80.0041 147.402C80.0041 120.939 67.2382 111.04 54.8978 101.445C42.4156 91.7483 29.5078 81.8498 29.5078 55.6897V0.945312H32.3447V55.6897C32.3447 81.0418 44.2595 90.3342 56.8836 100.132C69.6496 110.03 82.841 120.232 82.841 147.503C82.841 174.774 69.6496 184.975 56.8836 194.874C44.2595 204.671 32.3447 213.964 32.3447 239.316V294.06V293.858Z" fill="#6D6D6D"/>
</g>
<g style="mix-blend-mode:multiply" opacity="0.2">
<path d="M33.3369 293.858H30.5V239.114C30.5 212.954 43.4078 202.954 55.89 193.359C68.2304 183.763 80.9964 173.865 80.9964 147.402C80.9964 120.939 68.2304 111.04 55.89 101.445C43.4078 91.7483 30.5 81.8498 30.5 55.6897V0.945312H33.3369V55.6897C33.3369 81.0418 45.2518 90.3342 57.8759 100.132C70.6418 110.03 83.8333 120.232 83.8333 147.503C83.8333 174.774 70.6418 184.975 57.8759 194.874C45.2518 204.671 33.3369 213.964 33.3369 239.316V294.06V293.858Z" fill="#717171"/>
</g>
<g style="mix-blend-mode:multiply" opacity="0.2">
<path d="M34.4697 293.858H31.6328V239.114C31.6328 212.954 44.5406 202.954 57.0228 193.359C69.3632 183.763 82.1291 173.865 82.1291 147.402C82.1291 120.939 69.3632 111.04 57.0228 101.445C44.5406 91.7483 31.6328 81.8498 31.6328 55.6897V0.945312H34.4697V55.6897C34.4697 81.0418 46.3845 90.3342 59.0086 100.132C71.7746 110.03 84.966 120.232 84.966 147.503C84.966 174.774 71.7746 184.975 59.0086 194.874C46.3845 204.671 34.4697 213.964 34.4697 239.316V294.06V293.858Z" fill="#757575"/>
</g>
<g style="mix-blend-mode:multiply" opacity="0.2">
<path d="M35.6064 293.858H32.7695V239.114C32.7695 212.954 45.6773 202.954 58.1596 193.359C70.5 183.763 83.2659 173.865 83.2659 147.402C83.2659 120.939 70.5 111.04 58.1596 101.445C45.6773 91.7483 32.7695 81.8498 32.7695 55.6897V0.945312H35.6064V55.6897C35.6064 81.0418 47.5213 90.3342 60.1454 100.132C72.9113 110.03 86.1028 120.232 86.1028 147.503C86.1028 174.774 72.9113 184.975 60.1454 194.874C47.5213 204.671 35.6064 213.964 35.6064 239.316V294.06V293.858Z" fill="#797979"/>
</g>
<g style="mix-blend-mode:multiply" opacity="0.2">
<path d="M36.7431 293.858H33.9062V239.114C33.9062 212.954 46.8141 202.954 59.2963 193.359C71.6367 183.763 84.4026 173.865 84.4026 147.402C84.4026 120.939 71.6367 111.04 59.2963 101.445C46.8141 91.7483 33.9062 81.8498 33.9062 55.6897V0.945312H36.7431V55.6897C36.7431 81.0418 48.658 90.3342 61.2821 100.132C74.0481 110.03 87.2395 120.232 87.2395 147.503C87.2395 174.774 74.0481 184.975 61.2821 194.874C48.658 204.671 36.7431 213.964 36.7431 239.316V294.06V293.858Z" fill="#7D7D7D"/>
</g>
<g style="mix-blend-mode:multiply" opacity="0.1">
<path d="M37.8759 293.858H35.0391V239.114C35.0391 212.954 47.9468 202.954 60.4291 193.359C72.7695 183.763 85.5354 173.865 85.5354 147.402C85.5354 120.939 72.7695 111.04 60.4291 101.445C47.9468 91.7483 35.0391 81.8498 35.0391 55.6897V0.945312H37.8759V55.6897C37.8759 81.0418 49.7908 90.3342 62.4149 100.132C75.1808 110.03 88.3723 120.232 88.3723 147.503C88.3723 174.774 75.1808 184.975 62.4149 194.874C49.7908 204.671 37.8759 213.964 37.8759 239.316V294.06V293.858Z" fill="#828282"/>
</g>
<g style="mix-blend-mode:multiply" opacity="0.1">
<path d="M39.0087 293.858H36.1719V239.114C36.1719 212.954 49.0796 202.954 61.5619 193.359C73.9023 183.763 86.6683 173.865 86.6683 147.402C86.6683 120.939 73.9023 111.04 61.5619 101.445C49.0796 91.7483 36.1719 81.8498 36.1719 55.6897V0.945312H39.0087V55.6897C39.0087 81.0418 50.9236 90.3342 63.5477 100.132C76.3137 110.03 89.5051 120.232 89.5051 147.503C89.5051 174.774 76.3137 184.975 63.5477 194.874C50.9236 204.671 39.0087 213.964 39.0087 239.316V294.06V293.858Z" fill="#868686"/>
</g>
<g style="mix-blend-mode:multiply" opacity="0.1">
<path d="M40.1457 293.858H37.3088V239.114C37.3088 212.954 50.2165 202.954 62.6988 193.359C75.0392 183.763 87.8051 173.865 87.8051 147.402C87.8051 120.939 75.0392 111.04 62.6988 101.445C50.2165 91.7483 37.3088 81.8498 37.3088 55.6897V0.945312H40.1457V55.6897C40.1457 81.0418 52.0605 90.3342 64.6846 100.132C77.4505 110.03 90.642 120.232 90.642 147.503C90.642 174.774 77.4505 184.975 64.6846 194.874C52.0605 204.671 40.1457 213.964 40.1457 239.316V294.06V293.858Z" fill="#8A8A8A"/>
</g>
<g style="mix-blend-mode:multiply" opacity="0.1">
<path d="M41.1377 293.858H38.3008V239.114C38.3008 212.954 51.2086 202.954 63.6908 193.359C76.0312 183.763 88.7972 173.865 88.7972 147.402C88.7972 120.939 76.0312 111.04 63.6908 101.445C51.2086 91.7483 38.3008 81.8498 38.3008 55.6897V0.945312H41.1377V55.6897C41.1377 81.0418 53.0526 90.3342 65.6767 100.132C78.4426 110.03 91.6341 120.232 91.6341 147.503C91.6341 174.774 78.4426 184.975 65.6767 194.874C53.0526 204.671 41.1377 213.964 41.1377 239.316V294.06V293.858Z" fill="#8E8E8E"/>
</g>
<g style="mix-blend-mode:multiply" opacity="0.1">
<path d="M42.2744 293.858H39.4375V239.114C39.4375 212.954 52.3453 202.954 64.8275 193.359C77.1679 183.763 89.9339 173.865 89.9339 147.402C89.9339 120.939 77.1679 111.04 64.8275 101.445C52.3453 91.7483 39.4375 81.8498 39.4375 55.6897V0.945312H42.2744V55.6897C42.2744 81.0418 54.1893 90.3342 66.8133 100.132C79.5793 110.03 92.7707 120.232 92.7707 147.503C92.7707 174.774 79.5793 184.975 66.8133 194.874C54.1893 204.671 42.2744 213.964 42.2744 239.316V294.06V293.858Z" fill="#929292"/>
</g>
<g style="mix-blend-mode:multiply" opacity="0.1">
<path d="M43.4072 293.858H40.5703V239.114C40.5703 212.954 53.4781 202.954 65.9603 193.359C78.3007 183.763 91.0667 173.865 91.0667 147.402C91.0667 120.939 78.3007 111.04 65.9603 101.445C53.4781 91.7483 40.5703 81.8498 40.5703 55.6897V0.945312H43.4072V55.6897C43.4072 81.0418 55.322 90.3342 67.9461 100.132C80.7121 110.03 93.9036 120.232 93.9036 147.503C93.9036 174.774 80.7121 184.975 67.9461 194.874C55.322 204.671 43.4072 213.964 43.4072 239.316V294.06V293.858Z" fill="#969696"/>
</g>
<g style="mix-blend-mode:multiply" opacity="0.1">
<path d="M44.54 293.858H41.7031V239.114C41.7031 212.954 54.6109 202.954 67.0932 193.359C79.4336 183.763 92.1995 173.865 92.1995 147.402C92.1995 120.939 79.4336 111.04 67.0932 101.445C54.6109 91.7483 41.7031 81.8498 41.7031 55.6897V0.945312H44.54V55.6897C44.54 81.0418 56.4549 90.3342 69.079 100.132C81.8449 110.03 95.0364 120.232 95.0364 147.503C95.0364 174.774 81.8449 184.975 69.079 194.874C56.4549 204.671 44.54 213.964 44.54 239.316V294.06V293.858Z" fill="#9B9B9B"/>
</g>
<g style="mix-blend-mode:multiply" opacity="0.1">
<path d="M45.6806 293.858H42.8438V239.114C42.8438 212.954 55.7515 202.954 68.2338 193.359C80.5742 183.763 93.3401 173.865 93.3401 147.402C93.3401 120.939 80.5742 111.04 68.2338 101.445C55.7515 91.7483 42.8438 81.8498 42.8438 55.6897V0.945312H45.6806V55.6897C45.6806 81.0418 57.5955 90.3342 70.2196 100.132C82.9855 110.03 96.177 120.232 96.177 147.503C96.177 174.774 82.9855 184.975 70.2196 194.874C57.5955 204.671 45.6806 213.964 45.6806 239.316V294.06V293.858Z" fill="#9F9F9F"/>
</g>
<g style="mix-blend-mode:multiply" opacity="0.1">
<path d="M46.8134 293.858H43.9766V239.114C43.9766 212.954 56.8843 202.954 69.3666 193.359C81.707 183.763 94.4729 173.865 94.4729 147.402C94.4729 120.939 81.707 111.04 69.3666 101.445C56.8843 91.7483 43.9766 81.8498 43.9766 55.6897V0.945312H46.8134V55.6897C46.8134 81.0418 58.7283 90.3342 71.3524 100.132C84.1184 110.03 97.3098 120.232 97.3098 147.503C97.3098 174.774 84.1184 184.975 71.3524 194.874C58.7283 204.671 46.8134 213.964 46.8134 239.316V294.06V293.858Z" fill="#A3A3A3"/>
</g>
<g style="mix-blend-mode:multiply" opacity="0.1">
<path d="M47.9462 293.858H45.1094V239.114C45.1094 212.954 58.0171 202.954 70.4994 193.359C82.8398 183.763 95.6057 173.865 95.6057 147.402C95.6057 120.939 82.8398 111.04 70.4994 101.445C58.0171 91.7483 45.1094 81.8498 45.1094 55.6897V0.945312H47.9462V55.6897C47.9462 81.0418 59.8611 90.3342 72.4852 100.132C85.2511 110.03 98.4426 120.232 98.4426 147.503C98.4426 174.774 85.2511 184.975 72.4852 194.874C59.8611 204.671 47.9462 213.964 47.9462 239.316V294.06V293.858Z" fill="#A7A7A7"/>
</g>
</g>
</g>
</svg>
