<svg width="10" height="10" viewBox="0 0 10 10" fill="none" xmlns="http://www.w3.org/2000/svg">
<path d="M2.37168 2.59047H2.50363C2.70417 2.59047 2.86672 2.42786 2.86672 2.22738V1.22541V0.85062C2.86672 0.650142 2.70417 0.487549 2.50363 0.487549H2.37168C2.17116 0.487549 2.00861 0.650142 2.00861 0.85062V1.22543V2.22738C2.00861 2.42786 2.17116 2.59047 2.37168 2.59047Z" fill="white"/>
<path d="M7.02906 2.58315H7.16102C7.36153 2.58315 7.52409 2.42056 7.52409 2.22006V1.13198V0.843277C7.52409 0.642818 7.36153 0.480225 7.16102 0.480225H7.02906C6.82851 0.480225 6.66595 0.642818 6.66595 0.843277V1.13198V2.22004C6.66599 2.42056 6.82855 2.58315 7.02906 2.58315Z" fill="white"/>
<path d="M8.74805 1.22217H7.8162V2.31022C7.8162 2.67318 7.52093 2.87337 7.15801 2.87337H7.02606C6.6631 2.87337 6.36783 2.57809 6.36783 2.21513V1.22217H3.15909V2.22412C3.15909 2.58708 2.86382 2.88237 2.50086 2.88237H2.36891C2.00597 2.88237 1.7107 2.58708 1.7107 2.22412V1.22217H0.705323C0.379852 1.22217 0.115051 1.48697 0.115051 1.81246V8.94513C0.115051 9.27062 0.379852 9.53542 0.705323 9.53542H8.74805C9.07352 9.53542 9.3383 9.27062 9.3383 8.94513V1.81246C9.33834 1.48699 9.07352 1.22217 8.74805 1.22217ZM8.74805 8.94513H0.705342L0.705323 3.55872H8.74817L8.74847 8.94511C8.74843 8.94511 8.74832 8.94513 8.74805 8.94513Z" fill="white"/>
<path d="M5.03511 5.37069H6.09497C6.13699 5.37069 6.17105 5.33663 6.17105 5.29462V4.37686C6.17105 4.33484 6.13699 4.30078 6.09497 4.30078H5.03511C4.99309 4.30078 4.95903 4.33484 4.95903 4.37686V5.29462C4.95903 5.33663 4.99309 5.37069 5.03511 5.37069Z" fill="white"/>
<path d="M6.7588 5.37069H7.81867C7.86068 5.37069 7.89474 5.33663 7.89474 5.29462V4.37686C7.89474 4.33484 7.86068 4.30078 7.81867 4.30078H6.7588C6.71679 4.30078 6.68272 4.33484 6.68272 4.37686V5.29462C6.68272 5.33663 6.71679 5.37069 6.7588 5.37069Z" fill="white"/>
<path d="M1.57092 6.86925H2.63077C2.67278 6.86925 2.70684 6.83518 2.70684 6.79317V5.87539C2.70684 5.83338 2.67278 5.79932 2.63077 5.79932H1.57092C1.52891 5.79932 1.49484 5.83338 1.49484 5.87539V6.79317C1.49484 6.83518 1.52891 6.86925 1.57092 6.86925Z" fill="white"/>
<path d="M3.30091 6.86925H4.36076C4.40278 6.86925 4.43684 6.83518 4.43684 6.79317V5.87539C4.43684 5.83338 4.40278 5.79932 4.36076 5.79932H3.30091C3.2589 5.79932 3.22484 5.83338 3.22484 5.87539V6.79317C3.22484 6.83518 3.2589 6.86925 3.30091 6.86925Z" fill="white"/>
<path d="M5.03511 6.86925H6.09496C6.13697 6.86925 6.17103 6.83518 6.17103 6.79317V5.87539C6.17103 5.83338 6.13697 5.79932 6.09496 5.79932H5.03511C4.99309 5.79932 4.95903 5.83338 4.95903 5.87539V6.79317C4.95903 6.83518 4.99309 6.86925 5.03511 6.86925Z" fill="white"/>
<path d="M6.7588 6.86925H7.81867C7.86068 6.86925 7.89474 6.83518 7.89474 6.79317V5.87539C7.89474 5.83338 7.86068 5.79932 7.81867 5.79932H6.7588C6.71679 5.79932 6.68272 5.83338 6.68272 5.87539V6.79317C6.68272 6.83518 6.71679 6.86925 6.7588 6.86925Z" fill="white"/>
<path d="M2.63075 7.30493H1.57092C1.52891 7.30493 1.49484 7.33899 1.49484 7.38101V8.29879C1.49484 8.3408 1.52891 8.37486 1.57092 8.37486H2.63077C2.67278 8.37486 2.70684 8.3408 2.70684 8.29879V7.38101C2.70682 7.33899 2.67276 7.30493 2.63075 7.30493Z" fill="white"/>
<path d="M4.36076 7.30542H3.30091C3.2589 7.30542 3.22484 7.33948 3.22484 7.3815V8.29927C3.22484 8.34129 3.2589 8.37535 3.30091 8.37535H4.36076C4.40278 8.37535 4.43684 8.34129 4.43684 8.29927V7.3815C4.43684 7.33948 4.40278 7.30542 4.36076 7.30542Z" fill="white"/>
<path d="M6.09497 7.30493H5.03511C4.99309 7.30493 4.95903 7.33899 4.95903 7.38101V8.29879C4.95903 8.3408 4.99309 8.37486 5.03511 8.37486H6.09497C6.13699 8.37486 6.17105 8.3408 6.17105 8.29879V7.38101C6.17105 7.33899 6.13699 7.30493 6.09497 7.30493Z" fill="white"/>
<path d="M7.81867 7.30493H6.7588C6.71679 7.30493 6.68272 7.33899 6.68272 7.38101V8.29879C6.68272 8.3408 6.71679 8.37486 6.7588 8.37486H7.81867C7.86068 8.37486 7.89474 8.3408 7.89474 8.29879V7.38101C7.89474 7.33899 7.86068 7.30493 7.81867 7.30493Z" fill="white"/>
</svg>
