<svg width="26" height="26" viewBox="0 0 26 26" fill="none" xmlns="http://www.w3.org/2000/svg">
<path d="M12.0809 21.9112H3.00879V9.9399H20.0092V12.839C20.0092 13.056 20.1867 13.2138 20.3839 13.2138H22.1589C22.3758 13.2138 22.5336 13.0363 22.5336 12.839V3.94441C22.5336 3.37247 22.3167 2.85969 21.8828 2.42581C21.4489 1.99192 20.9361 1.77498 20.3642 1.77498H18.8259V0.374718C18.8259 0.157776 18.6484 0 18.4511 0H16.5184C16.3014 0 16.1437 0.177498 16.1437 0.374718V1.77498H6.87431V0.374718C6.87431 0.157776 6.69681 0 6.49959 0H4.56683C4.34989 0 4.19212 0.177498 4.19212 0.374718V1.77498H2.6538C2.08186 1.77498 1.56909 1.99192 1.1352 2.42581C0.701317 2.85969 0.484375 3.37247 0.484375 3.94441V22.2859C0.484375 22.8578 0.701317 23.3706 1.1352 23.8045C1.56909 24.2384 2.08186 24.4553 2.6538 24.4553H12.1006C12.3176 24.4553 12.4754 24.2778 12.4754 24.0806V22.3056C12.4556 22.0887 12.2979 21.9112 12.0809 21.9112ZM3.00879 7.39576V4.31912H20.0092V7.39576H3.00879Z" fill="black"/>
<path d="M20.5214 16.4855C20.3636 16.3277 20.127 16.3277 19.9889 16.4855L13.5793 22.8755C13.5004 22.9543 13.4609 23.053 13.4609 23.1516V25.2618C13.4609 25.4788 13.6384 25.6365 13.8357 25.6365H15.9459C16.0445 25.6365 16.1431 25.5971 16.222 25.5182L22.612 19.1283C22.6908 19.0494 22.7303 18.9508 22.7303 18.8522C22.7303 18.7536 22.6908 18.6549 22.612 18.5761L20.5214 16.4855Z" fill="black"/>
<path d="M24.7617 15.2228L23.8939 14.355C23.6572 14.1183 23.3614 14 23.0064 14C22.6514 14 22.3556 14.1183 22.1189 14.355L21.2511 15.2228C21.1723 15.3017 21.1328 15.4003 21.1328 15.4989C21.1328 15.5975 21.1723 15.6961 21.2511 15.775L23.3614 17.8852C23.4403 17.9641 23.5389 18.0036 23.6375 18.0036C23.7361 18.0036 23.8347 17.9641 23.9136 17.8852L24.7814 17.0175C25.0181 16.7808 25.1364 16.485 25.1364 16.13C25.0969 15.7553 24.9983 15.4594 24.7617 15.2228Z" fill="black"/>
</svg>
