<svg width="64" height="64" viewBox="0 0 64 64" fill="none" xmlns="http://www.w3.org/2000/svg">
<path d="M63.5477 42.1947C63.2676 40.6811 62.2603 39.403 60.854 38.7763C59.221 38.0481 57.2851 38.3258 55.9171 39.4889L45.8958 48.1078C45.4822 45.7199 43.3954 43.8981 40.891 43.8981H31.4323L29.7154 42.8476C26.9256 41.1408 23.7222 40.2384 20.4513 40.2384H19.9363C16.8251 40.2384 13.8489 41.2665 11.4329 43.1238V42.9199C11.4329 41.5495 10.3179 40.4345 8.94752 40.4345H2.48542C1.11504 40.4345 0 41.5495 0 42.9199V61.312C0 62.6824 1.11504 63.7975 2.48542 63.7975H8.94752C9.86499 63.7975 10.666 63.2965 11.0965 62.5547H20.629C21.3154 62.5547 21.8717 61.9984 21.8717 61.312C21.8717 60.6256 21.3154 60.0693 20.629 60.0693H11.4329V46.4922C13.6077 44.0918 16.6819 42.7238 19.9363 42.7238H20.4513C23.2639 42.7238 26.0193 43.5 28.4183 44.968L30.4338 46.201C30.6289 46.3204 30.8537 46.3835 31.0823 46.3835H40.891C42.3216 46.3835 43.4852 47.5471 43.4852 48.9776C43.4852 50.3655 42.3895 51.5024 41.0182 51.5689C41.0095 51.5689 41.0007 51.5689 40.992 51.5689H28.1265C27.4406 51.5689 26.8838 52.1257 26.8838 52.8116C26.8838 53.498 27.4401 54.0543 28.1265 54.0543L40.891 54.0572C40.959 54.0572 41.0264 54.0558 41.0934 54.0533C42.2187 54.03 43.3041 53.615 44.159 52.8801L57.5322 41.3777C58.1705 40.835 59.0773 40.7049 59.8424 41.0461C60.5108 41.3442 60.9705 41.9277 61.104 42.6476C61.237 43.367 61.0171 44.0767 60.4996 44.5942L48.8259 56.2742C46.3798 58.7213 43.1269 60.0693 39.6667 60.0693H31.8134C31.127 60.0693 30.5707 60.6256 30.5707 61.312C30.5707 61.9984 31.127 62.5547 31.8134 62.5547H39.6667C43.791 62.5547 47.6682 60.9484 50.5837 58.031L62.2574 46.3515C63.3457 45.2626 63.8282 43.7087 63.5477 42.1947ZM2.48542 61.312L2.48397 42.9199H2.48542H8.94752V61.312H2.48542Z" fill="white"/>
<path d="M7.82982 14.9877L17.1497 20.3105V28.7784C17.1497 29.5007 17.5108 30.1667 18.1162 30.5609L27.5379 36.6963C28.3836 37.2468 29.353 37.5225 30.3224 37.522C31.2918 37.522 32.2612 37.2468 33.1068 36.6963L42.5291 30.5609C43.134 30.1667 43.4951 29.5007 43.4951 28.7784V20.3105L50.9562 16.0493V20.0289C49.231 20.5609 47.9737 22.1697 47.9737 24.0672V34.3774C47.9737 35.0633 48.53 35.6201 49.2165 35.6201H55.1815C55.8679 35.6201 56.4242 35.0633 56.4242 34.3774V24.0672C56.4242 22.1697 55.1669 20.5605 53.4417 20.0289V13.9086C53.4417 13.4624 53.2024 13.0508 52.815 12.8294L30.9389 0.335345C30.5569 0.117385 30.0879 0.117385 29.7059 0.335345L7.82982 12.8294C7.44244 13.0503 7.20312 13.4624 7.20312 13.9086C7.20312 14.3547 7.44244 14.7663 7.82982 14.9877ZM41.0097 28.5842L31.7505 34.6133C30.8831 35.1783 29.7617 35.1783 28.8943 34.6133L19.6351 28.5842V21.7299L29.7064 27.4813C29.8972 27.5905 30.1098 27.6449 30.3224 27.6449C30.535 27.6449 30.7481 27.5905 30.9389 27.4813L41.0097 21.7299V28.5842ZM53.9388 33.1342H50.4592V24.0672C50.4592 23.1075 51.2393 22.3274 52.199 22.3274C53.1582 22.3274 53.9388 23.1075 53.9388 24.0672V33.1342ZM30.3224 2.84552L47.5169 12.6659H33.7937C33.25 11.279 31.8991 10.2935 30.3219 10.2935C28.2661 10.2935 26.5938 11.9663 26.5938 14.0217C26.5938 16.0775 28.2661 17.7498 30.3219 17.7498C31.984 17.7498 33.3952 16.6561 33.8748 15.1513H47.5169L30.3224 24.9711L10.9516 13.9086L30.3224 2.84552ZM31.5646 14.0217C31.5646 14.7071 31.0073 15.2644 30.3219 15.2644C29.6365 15.2644 29.0792 14.7071 29.0792 14.0217C29.0792 13.3367 29.6365 12.779 30.3219 12.779C31.0073 12.779 31.5646 13.3367 31.5646 14.0217Z" fill="white"/>
<path d="M26.2193 60.0703C25.8926 60.0703 25.5717 60.2033 25.3406 60.4344C25.1096 60.6655 24.9766 60.9863 24.9766 61.313C24.9766 61.6397 25.1096 61.9606 25.3406 62.1917C25.5717 62.4227 25.8926 62.5557 26.2193 62.5557C26.546 62.5557 26.8668 62.4227 27.0979 62.1917C27.329 61.9606 27.462 61.6397 27.462 61.313C27.462 60.9863 27.329 60.6655 27.0979 60.4344C26.8668 60.2033 26.546 60.0703 26.2193 60.0703Z" fill="white"/>
</svg>
