<svg width="122" height="295" viewBox="0 0 122 295" fill="none" xmlns="http://www.w3.org/2000/svg">
<g opacity="0.08">
<g style="mix-blend-mode:multiply" opacity="0.6">
<g style="mix-blend-mode:multiply" opacity="0.3">
<path d="M3.36031 293.858H0.523438V239.114C0.523438 212.954 13.4312 202.954 25.9134 193.359C38.2538 183.763 51.0198 173.865 51.0198 147.402C51.0198 120.939 38.2538 111.04 25.9134 101.445C13.4312 91.7483 0.523438 81.8498 0.523438 55.6897V0.945312H3.36031V55.6897C3.36031 81.0418 15.2752 90.3342 27.8993 100.132C40.6652 110.03 53.8566 120.232 53.8566 147.503C53.8566 174.774 40.6652 184.975 27.8993 194.874C15.2752 204.671 3.36031 213.964 3.36031 239.316V294.06V293.858Z" fill="black"/>
</g>
<g style="mix-blend-mode:multiply" opacity="0.3">
<path d="M4.3525 293.858H1.51562V239.114C1.51562 212.954 14.4234 202.954 26.9057 193.359C39.2461 183.763 52.012 173.865 52.012 147.402C52.012 120.939 39.2461 111.04 26.9057 101.445C14.4234 91.7483 1.51562 81.8498 1.51562 55.6897V0.945312H4.3525V55.6897C4.3525 81.0418 16.2674 90.3342 28.8915 100.132C41.6575 110.03 54.8489 120.232 54.8489 147.503C54.8489 174.774 41.6575 184.975 28.8915 194.874C16.2674 204.671 4.3525 213.964 4.3525 239.316V294.06V293.858Z" fill="#040404"/>
</g>
<g style="mix-blend-mode:multiply" opacity="0.3">
<path d="M5.48903 293.858H2.65216V239.114C2.65216 212.954 15.5599 202.954 28.0421 193.359C40.3825 183.763 53.1485 173.865 53.1485 147.402C53.1485 120.939 40.3825 111.04 28.0421 101.445C15.5599 91.7483 2.65216 81.8498 2.65216 55.6897V0.945312H5.48903V55.6897C5.48903 81.0418 17.4039 90.3342 30.028 100.132C42.7939 110.03 55.9854 120.232 55.9854 147.503C55.9854 174.774 42.7939 184.975 30.028 194.874C17.4039 204.671 5.48903 213.964 5.48903 239.316V294.06V293.858Z" fill="#080808"/>
</g>
<g style="mix-blend-mode:multiply" opacity="0.3">
<path d="M6.62594 293.858H3.78906V239.114C3.78906 212.954 16.6968 202.954 29.179 193.359C41.5194 183.763 54.2854 173.865 54.2854 147.402C54.2854 120.939 41.5194 111.04 29.179 101.445C16.6968 91.7483 3.78906 81.8498 3.78906 55.6897V0.945312H6.62594V55.6897C6.62594 81.0418 18.5408 90.3342 31.1649 100.132C43.9308 110.03 57.1223 120.232 57.1223 147.503C57.1223 174.774 43.9308 184.975 31.1649 194.874C18.5408 204.671 6.62594 213.964 6.62594 239.316V294.06V293.858Z" fill="#0D0D0D"/>
</g>
<g style="mix-blend-mode:multiply" opacity="0.3">
<path d="M7.75875 293.858H4.92188V239.114C4.92188 212.954 17.8297 202.954 30.3119 193.359C42.6523 183.763 55.4182 173.865 55.4182 147.402C55.4182 120.939 42.6523 111.04 30.3119 101.445C17.8297 91.7483 4.92188 81.8498 4.92188 55.6897V0.945312H7.75875V55.6897C7.75875 81.0418 19.6736 90.3342 32.2977 100.132C45.0636 110.03 58.2551 120.232 58.2551 147.503C58.2551 174.774 45.0636 184.975 32.2977 194.874C19.6736 204.671 7.75875 213.964 7.75875 239.316V294.06V293.858Z" fill="#111111"/>
</g>
<g style="mix-blend-mode:multiply" opacity="0.3">
<path d="M8.89156 293.858H6.05469V239.114C6.05469 212.954 18.9625 202.954 31.4447 193.359C43.7852 183.763 56.5511 173.865 56.5511 147.402C56.5511 120.939 43.7852 111.04 31.4447 101.445C18.9625 91.7483 6.05469 81.8498 6.05469 55.6897V0.945312H8.89156V55.6897C8.89156 81.0418 20.8064 90.3342 33.4305 100.132C46.1964 110.03 59.388 120.232 59.388 147.503C59.388 174.774 46.1964 184.975 33.4305 194.874C20.8064 204.671 8.89156 213.964 8.89156 239.316V294.06V293.858Z" fill="#151515"/>
</g>
<g style="mix-blend-mode:multiply" opacity="0.3">
<path d="M10.0244 293.858H7.1875V239.114C7.1875 212.954 20.0953 202.954 32.5776 193.359C44.918 183.763 57.6839 173.865 57.6839 147.402C57.6839 120.939 44.918 111.04 32.5776 101.445C20.0953 91.7483 7.1875 81.8498 7.1875 55.6897V0.945312H10.0244V55.6897C10.0244 81.0418 21.9393 90.3342 34.5634 100.132C47.3293 110.03 60.5208 120.232 60.5208 147.503C60.5208 174.774 47.3293 184.975 34.5634 194.874C21.9393 204.671 10.0244 213.964 10.0244 239.316V294.06V293.858Z" fill="#191919"/>
</g>
<g style="mix-blend-mode:multiply" opacity="0.3">
<path d="M11.165 293.858H8.32812V239.114C8.32812 212.954 21.2359 202.954 33.7181 193.359C46.0585 183.763 58.8245 173.865 58.8245 147.402C58.8245 120.939 46.0585 111.04 33.7181 101.445C21.2359 91.7483 8.32812 81.8498 8.32812 55.6897V0.945312H11.165V55.6897C11.165 81.0418 23.0799 90.3342 35.7039 100.132C48.4699 110.03 61.6613 120.232 61.6613 147.503C61.6613 174.774 48.4699 184.975 35.7039 194.874C23.0799 204.671 11.165 213.964 11.165 239.316V294.06V293.858Z" fill="#1D1D1D"/>
</g>
<g style="mix-blend-mode:multiply" opacity="0.3">
<path d="M12.2978 293.858H9.46094V239.114C9.46094 212.954 22.3687 202.954 34.8509 193.359C47.1913 183.763 59.9573 173.865 59.9573 147.402C59.9573 120.939 47.1913 111.04 34.8509 101.445C22.3687 91.7483 9.46094 81.8498 9.46094 55.6897V0.945312H12.2978V55.6897C12.2978 81.0418 24.2127 90.3342 36.8368 100.132C49.6027 110.03 62.7941 120.232 62.7941 147.503C62.7941 174.774 49.6027 184.975 36.8368 194.874C24.2127 204.671 12.2978 213.964 12.2978 239.316V294.06V293.858Z" fill="#212121"/>
</g>
<g style="mix-blend-mode:multiply" opacity="0.3">
<path d="M13.29 293.858H10.4531V239.114C10.4531 212.954 23.3609 202.954 35.8431 193.359C48.1835 183.763 60.9495 173.865 60.9495 147.402C60.9495 120.939 48.1835 111.04 35.8431 101.445C23.3609 91.7483 10.4531 81.8498 10.4531 55.6897V0.945312H13.29V55.6897C13.29 81.0418 25.2049 90.3342 37.8289 100.132C50.5949 110.03 63.7863 120.232 63.7863 147.503C63.7863 174.774 50.5949 184.975 37.8289 194.874C25.2049 204.671 13.29 213.964 13.29 239.316V294.06V293.858Z" fill="#262626"/>
</g>
<g style="mix-blend-mode:multiply" opacity="0.3">
<path d="M14.4228 293.858H11.5859V239.114C11.5859 212.954 24.4937 202.954 36.9759 193.359C49.3163 183.763 62.0823 173.865 62.0823 147.402C62.0823 120.939 49.3163 111.04 36.9759 101.445C24.4937 91.7483 11.5859 81.8498 11.5859 55.6897V0.945312H14.4228V55.6897C14.4228 81.0418 26.3377 90.3342 38.9618 100.132C51.7277 110.03 64.9191 120.232 64.9191 147.503C64.9191 174.774 51.7277 184.975 38.9618 194.874C26.3377 204.671 14.4228 213.964 14.4228 239.316V294.06V293.858Z" fill="#2A2A2A"/>
</g>
<g style="mix-blend-mode:multiply" opacity="0.2">
<path d="M15.5556 293.858H12.7188V239.114C12.7188 212.954 25.6266 202.954 38.1088 193.359C50.4492 183.763 63.2151 173.865 63.2151 147.402C63.2151 120.939 50.4492 111.04 38.1088 101.445C25.6266 91.7483 12.7188 81.8498 12.7188 55.6897V0.945312H15.5556V55.6897C15.5556 81.0418 27.4705 90.3342 40.0946 100.132C52.8605 110.03 66.052 120.232 66.052 147.503C66.052 174.774 52.8605 184.975 40.0946 194.874C27.4705 204.671 15.5556 213.964 15.5556 239.316V294.06V293.858Z" fill="#2E2E2E"/>
</g>
<g style="mix-blend-mode:multiply" opacity="0.2">
<path d="M16.6962 293.858H13.8594V239.114C13.8594 212.954 26.7672 202.954 39.2494 193.359C51.5898 183.763 64.3558 173.865 64.3558 147.402C64.3558 120.939 51.5898 111.04 39.2494 101.445C26.7672 91.7483 13.8594 81.8498 13.8594 55.6897V0.945312H16.6962V55.6897C16.6962 81.0418 28.6111 90.3342 41.2352 100.132C54.0011 110.03 67.1927 120.232 67.1927 147.503C67.1927 174.774 54.0011 184.975 41.2352 194.874C28.6111 204.671 16.6962 213.964 16.6962 239.316V294.06V293.858Z" fill="#323232"/>
</g>
<g style="mix-blend-mode:multiply" opacity="0.2">
<path d="M17.8291 293.858H14.9922V239.114C14.9922 212.954 27.9 202.954 40.3822 193.359C52.7227 183.763 65.4886 173.865 65.4886 147.402C65.4886 120.939 52.7227 111.04 40.3822 101.445C27.9 91.7483 14.9922 81.8498 14.9922 55.6897V0.945312H17.8291V55.6897C17.8291 81.0418 29.744 90.3342 42.3681 100.132C55.134 110.03 68.3255 120.232 68.3255 147.503C68.3255 174.774 55.134 184.975 42.3681 194.874C29.744 204.671 17.8291 213.964 17.8291 239.316V294.06V293.858Z" fill="#363636"/>
</g>
<g style="mix-blend-mode:multiply" opacity="0.2">
<path d="M18.9619 293.858H16.125V239.114C16.125 212.954 29.0327 202.954 41.515 193.359C53.8554 183.763 66.6213 173.865 66.6213 147.402C66.6213 120.939 53.8554 111.04 41.515 101.445C29.0327 91.7483 16.125 81.8498 16.125 55.6897V0.945312H18.9619V55.6897C18.9619 81.0418 30.8767 90.3342 43.5008 100.132C56.2668 110.03 69.4582 120.232 69.4582 147.503C69.4582 174.774 56.2668 184.975 43.5008 194.874C30.8767 204.671 18.9619 213.964 18.9619 239.316V294.06V293.858Z" fill="#3B3B3B"/>
</g>
<g style="mix-blend-mode:multiply" opacity="0.2">
<path d="M20.0986 293.858H17.2617V239.114C17.2617 212.954 30.1694 202.954 42.6517 193.359C54.9921 183.763 67.758 173.865 67.758 147.402C67.758 120.939 54.9921 111.04 42.6517 101.445C30.1694 91.7483 17.2617 81.8498 17.2617 55.6897V0.945312H20.0986V55.6897C20.0986 81.0418 32.0134 90.3342 44.6375 100.132C57.4035 110.03 70.5949 120.232 70.5949 147.503C70.5949 174.774 57.4035 184.975 44.6375 194.874C32.0134 204.671 20.0986 213.964 20.0986 239.316V294.06V293.858Z" fill="#3F3F3F"/>
</g>
<g style="mix-blend-mode:multiply" opacity="0.2">
<path d="M21.091 293.858H18.2541V239.114C18.2541 212.954 31.1618 202.954 43.6441 193.359C55.9845 183.763 68.7504 173.865 68.7504 147.402C68.7504 120.939 55.9845 111.04 43.6441 101.445C31.1618 91.7483 18.2541 81.8498 18.2541 55.6897V0.945312H21.091V55.6897C21.091 81.0418 33.0058 90.3342 45.6299 100.132C58.3958 110.03 71.5873 120.232 71.5873 147.503C71.5873 174.774 58.3958 184.975 45.6299 194.874C33.0058 204.671 21.091 213.964 21.091 239.316V294.06V293.858Z" fill="#434343"/>
</g>
<g style="mix-blend-mode:multiply" opacity="0.2">
<path d="M22.2275 293.858H19.3906V239.114C19.3906 212.954 32.2984 202.954 44.7806 193.359C57.121 183.763 69.887 173.865 69.887 147.402C69.887 120.939 57.121 111.04 44.7806 101.445C32.2984 91.7483 19.3906 81.8498 19.3906 55.6897V0.945312H22.2275V55.6897C22.2275 81.0418 34.1424 90.3342 46.7664 100.132C59.5324 110.03 72.7238 120.232 72.7238 147.503C72.7238 174.774 59.5324 184.975 46.7664 194.874C34.1424 204.671 22.2275 213.964 22.2275 239.316V294.06V293.858Z" fill="#474747"/>
</g>
<g style="mix-blend-mode:multiply" opacity="0.2">
<path d="M23.3603 293.858H20.5234V239.114C20.5234 212.954 33.4312 202.954 45.9134 193.359C58.2538 183.763 71.0197 173.865 71.0197 147.402C71.0197 120.939 58.2538 111.04 45.9134 101.445C33.4312 91.7483 20.5234 81.8498 20.5234 55.6897V0.945312H23.3603V55.6897C23.3603 81.0418 35.2751 90.3342 47.8992 100.132C60.6651 110.03 73.8566 120.232 73.8566 147.503C73.8566 174.774 60.6651 184.975 47.8992 194.874C35.2751 204.671 23.3603 213.964 23.3603 239.316V294.06V293.858Z" fill="#4B4B4B"/>
</g>
<g style="mix-blend-mode:multiply" opacity="0.2">
<path d="M24.4931 293.858H21.6562V239.114C21.6562 212.954 34.5641 202.954 47.0463 193.359C59.3867 183.763 72.1527 173.865 72.1527 147.402C72.1527 120.939 59.3867 111.04 47.0463 101.445C34.5641 91.7483 21.6562 81.8498 21.6562 55.6897V0.945312H24.4931V55.6897C24.4931 81.0418 36.408 90.3342 49.0321 100.132C61.798 110.03 74.9895 120.232 74.9895 147.503C74.9895 174.774 61.798 184.975 49.0321 194.874C36.408 204.671 24.4931 213.964 24.4931 239.316V294.06V293.858Z" fill="#4F4F4F"/>
</g>
<g style="mix-blend-mode:multiply" opacity="0.2">
<path d="M25.6259 293.858H22.7891V239.114C22.7891 212.954 35.6969 202.954 48.1791 193.359C60.5195 183.763 73.2855 173.865 73.2855 147.402C73.2855 120.939 60.5195 111.04 48.1791 101.445C35.6969 91.7483 22.7891 81.8498 22.7891 55.6897V0.945312H25.6259V55.6897C25.6259 81.0418 37.5409 90.3342 50.165 100.132C62.9309 110.03 76.1224 120.232 76.1224 147.503C76.1224 174.774 62.9309 184.975 50.165 194.874C37.5409 204.671 25.6259 213.964 25.6259 239.316V294.06V293.858Z" fill="#545454"/>
</g>
<g style="mix-blend-mode:multiply" opacity="0.2">
<path d="M26.7666 293.858H23.9297V239.114C23.9297 212.954 36.8374 202.954 49.3197 193.359C61.6601 183.763 74.426 173.865 74.426 147.402C74.426 120.939 61.6601 111.04 49.3197 101.445C36.8374 91.7483 23.9297 81.8498 23.9297 55.6897V0.945312H26.7666V55.6897C26.7666 81.0418 38.6814 90.3342 51.3055 100.132C64.0714 110.03 77.2629 120.232 77.2629 147.503C77.2629 174.774 64.0714 184.975 51.3055 194.874C38.6814 204.671 26.7666 213.964 26.7666 239.316V294.06V293.858Z" fill="#585858"/>
</g>
<g style="mix-blend-mode:multiply" opacity="0.2">
<path d="M27.8994 293.858H25.0625V239.114C25.0625 212.954 37.9702 202.954 50.4525 193.359C62.7929 183.763 75.5588 173.865 75.5588 147.402C75.5588 120.939 62.7929 111.04 50.4525 101.445C37.9702 91.7483 25.0625 81.8498 25.0625 55.6897V0.945312H27.8994V55.6897C27.8994 81.0418 39.8142 90.3342 52.4383 100.132C65.2043 110.03 78.3957 120.232 78.3957 147.503C78.3957 174.774 65.2043 184.975 52.4383 194.874C39.8142 204.671 27.8994 213.964 27.8994 239.316V294.06V293.858Z" fill="#5C5C5C"/>
</g>
<g style="mix-blend-mode:multiply" opacity="0.2">
<path d="M28.8916 293.858H26.0547V239.114C26.0547 212.954 38.9624 202.954 51.4447 193.359C63.7851 183.763 76.551 173.865 76.551 147.402C76.551 120.939 63.7851 111.04 51.4447 101.445C38.9624 91.7483 26.0547 81.8498 26.0547 55.6897V0.945312H28.8916V55.6897C28.8916 81.0418 40.8064 90.3342 53.4305 100.132C66.1964 110.03 79.3879 120.232 79.3879 147.503C79.3879 174.774 66.1964 184.975 53.4305 194.874C40.8064 204.671 28.8916 213.964 28.8916 239.316V294.06V293.858Z" fill="#606060"/>
</g>
<g style="mix-blend-mode:multiply" opacity="0.2">
<path d="M30.0322 293.858H27.1953V239.114C27.1953 212.954 40.103 202.954 52.5853 193.359C64.9257 183.763 77.6916 173.865 77.6916 147.402C77.6916 120.939 64.9257 111.04 52.5853 101.445C40.103 91.7483 27.1953 81.8498 27.1953 55.6897V0.945312H30.0322V55.6897C30.0322 81.0418 41.947 90.3342 54.5711 100.132C67.3371 110.03 80.5285 120.232 80.5285 147.503C80.5285 174.774 67.3371 184.975 54.5711 194.874C41.947 204.671 30.0322 213.964 30.0322 239.316V294.06V293.858Z" fill="#646464"/>
</g>
<g style="mix-blend-mode:multiply" opacity="0.2">
<path d="M31.165 293.858H28.3281V239.114C28.3281 212.954 41.2359 202.954 53.7182 193.359C66.0586 183.763 78.8245 173.865 78.8245 147.402C78.8245 120.939 66.0586 111.04 53.7182 101.445C41.2359 91.7483 28.3281 81.8498 28.3281 55.6897V0.945312H31.165V55.6897C31.165 81.0418 43.0799 90.3342 55.7039 100.132C68.4699 110.03 81.6613 120.232 81.6613 147.503C81.6613 174.774 68.4699 184.975 55.7039 194.874C43.0799 204.671 31.165 213.964 31.165 239.316V294.06V293.858Z" fill="#696969"/>
</g>
<g style="mix-blend-mode:multiply" opacity="0.2">
<path d="M32.2978 293.858H29.4609V239.114C29.4609 212.954 42.3688 202.954 54.851 193.359C67.1914 183.763 79.9574 173.865 79.9574 147.402C79.9574 120.939 67.1914 111.04 54.851 101.445C42.3688 91.7483 29.4609 81.8498 29.4609 55.6897V0.945312H32.2978V55.6897C32.2978 81.0418 44.2127 90.3342 56.8368 100.132C69.6027 110.03 82.7942 120.232 82.7942 147.503C82.7942 174.774 69.6027 184.975 56.8368 194.874C44.2127 204.671 32.2978 213.964 32.2978 239.316V294.06V293.858Z" fill="#6D6D6D"/>
</g>
<g style="mix-blend-mode:multiply" opacity="0.2">
<path d="M33.4306 293.858H30.5938V239.114C30.5938 212.954 43.5016 202.954 55.9838 193.359C68.3242 183.763 81.0902 173.865 81.0902 147.402C81.0902 120.939 68.3242 111.04 55.9838 101.445C43.5016 91.7483 30.5938 81.8498 30.5938 55.6897V0.945312H33.4306V55.6897C33.4306 81.0418 45.3456 90.3342 57.9697 100.132C70.7356 110.03 83.927 120.232 83.927 147.503C83.927 174.774 70.7356 184.975 57.9697 194.874C45.3456 204.671 33.4306 213.964 33.4306 239.316V294.06V293.858Z" fill="#717171"/>
</g>
<g style="mix-blend-mode:multiply" opacity="0.2">
<path d="M34.5634 293.858H31.7266V239.114C31.7266 212.954 44.6343 202.954 57.1165 193.359C69.4569 183.763 82.2229 173.865 82.2229 147.402C82.2229 120.939 69.4569 111.04 57.1165 101.445C44.6343 91.7483 31.7266 81.8498 31.7266 55.6897V0.945312H34.5634V55.6897C34.5634 81.0418 46.4783 90.3342 59.1024 100.132C71.8683 110.03 85.0598 120.232 85.0598 147.503C85.0598 174.774 71.8683 184.975 59.1024 194.874C46.4783 204.671 34.5634 213.964 34.5634 239.316V294.06V293.858Z" fill="#757575"/>
</g>
<g style="mix-blend-mode:multiply" opacity="0.2">
<path d="M35.7002 293.858H32.8633V239.114C32.8633 212.954 45.771 202.954 58.2533 193.359C70.5937 183.763 83.3596 173.865 83.3596 147.402C83.3596 120.939 70.5937 111.04 58.2533 101.445C45.771 91.7483 32.8633 81.8498 32.8633 55.6897V0.945312H35.7002V55.6897C35.7002 81.0418 47.615 90.3342 60.2391 100.132C73.005 110.03 86.1965 120.232 86.1965 147.503C86.1965 174.774 73.005 184.975 60.2391 194.874C47.615 204.671 35.7002 213.964 35.7002 239.316V294.06V293.858Z" fill="#797979"/>
</g>
<g style="mix-blend-mode:multiply" opacity="0.2">
<path d="M36.8369 293.858H34V239.114C34 212.954 46.9078 202.954 59.3901 193.359C71.7305 183.763 84.4963 173.865 84.4963 147.402C84.4963 120.939 71.7305 111.04 59.3901 101.445C46.9078 91.7483 34 81.8498 34 55.6897V0.945312H36.8369V55.6897C36.8369 81.0418 48.7517 90.3342 61.3758 100.132C74.1418 110.03 87.3332 120.232 87.3332 147.503C87.3332 174.774 74.1418 184.975 61.3758 194.874C48.7517 204.671 36.8369 213.964 36.8369 239.316V294.06V293.858Z" fill="#7D7D7D"/>
</g>
<g style="mix-blend-mode:multiply" opacity="0.1">
<path d="M37.8291 293.858H34.9922V239.114C34.9922 212.954 47.8999 202.954 60.3822 193.359C72.7226 183.763 85.4885 173.865 85.4885 147.402C85.4885 120.939 72.7226 111.04 60.3822 101.445C47.8999 91.7483 34.9922 81.8498 34.9922 55.6897V0.945312H37.8291V55.6897C37.8291 81.0418 49.7439 90.3342 62.368 100.132C75.1339 110.03 88.3254 120.232 88.3254 147.503C88.3254 174.774 75.1339 184.975 62.368 194.874C49.7439 204.671 37.8291 213.964 37.8291 239.316V294.06V293.858Z" fill="#828282"/>
</g>
<g style="mix-blend-mode:multiply" opacity="0.1">
<path d="M38.9619 293.858H36.125V239.114C36.125 212.954 49.0328 202.954 61.5151 193.359C73.8555 183.763 86.6213 173.865 86.6213 147.402C86.6213 120.939 73.8555 111.04 61.5151 101.445C49.0328 91.7483 36.125 81.8498 36.125 55.6897V0.945312H38.9619V55.6897C38.9619 81.0418 50.8767 90.3342 63.5008 100.132C76.2668 110.03 89.4582 120.232 89.4582 147.503C89.4582 174.774 76.2668 184.975 63.5008 194.874C50.8767 204.671 38.9619 213.964 38.9619 239.316V294.06V293.858Z" fill="#868686"/>
</g>
<g style="mix-blend-mode:multiply" opacity="0.1">
<path d="M40.0986 293.858H37.2617V239.114C37.2617 212.954 50.1695 202.954 62.6518 193.359C74.9922 183.763 87.7581 173.865 87.7581 147.402C87.7581 120.939 74.9922 111.04 62.6518 101.445C50.1695 91.7483 37.2617 81.8498 37.2617 55.6897V0.945312H40.0986V55.6897C40.0986 81.0418 52.0134 90.3342 64.6375 100.132C77.4035 110.03 90.595 120.232 90.595 147.503C90.595 174.774 77.4035 184.975 64.6375 194.874C52.0134 204.671 40.0986 213.964 40.0986 239.316V294.06V293.858Z" fill="#8A8A8A"/>
</g>
<g style="mix-blend-mode:multiply" opacity="0.1">
<path d="M41.2315 293.858H38.3946V239.114C38.3946 212.954 51.3024 202.954 63.7847 193.359C76.1251 183.763 88.891 173.865 88.891 147.402C88.891 120.939 76.1251 111.04 63.7847 101.445C51.3024 91.7483 38.3946 81.8498 38.3946 55.6897V0.945312H41.2315V55.6897C41.2315 81.0418 53.1464 90.3342 65.7705 100.132C78.5364 110.03 91.7279 120.232 91.7279 147.503C91.7279 174.774 78.5364 184.975 65.7705 194.874C53.1464 204.671 41.2315 213.964 41.2315 239.316V294.06V293.858Z" fill="#8E8E8E"/>
</g>
<g style="mix-blend-mode:multiply" opacity="0.1">
<path d="M42.3681 293.858H39.5312V239.114C39.5312 212.954 52.439 202.954 64.9212 193.359C77.2616 183.763 90.0276 173.865 90.0276 147.402C90.0276 120.939 77.2616 111.04 64.9212 101.445C52.439 91.7483 39.5312 81.8498 39.5312 55.6897V0.945312H42.3681V55.6897C42.3681 81.0418 54.283 90.3342 66.9071 100.132C79.673 110.03 92.8645 120.232 92.8645 147.503C92.8645 174.774 79.673 184.975 66.9071 194.874C54.283 204.671 42.3681 213.964 42.3681 239.316V294.06V293.858Z" fill="#929292"/>
</g>
<g style="mix-blend-mode:multiply" opacity="0.1">
<path d="M43.5009 293.858H40.6641V239.114C40.6641 212.954 53.5718 202.954 66.054 193.359C78.3944 183.763 91.1604 173.865 91.1604 147.402C91.1604 120.939 78.3944 111.04 66.054 101.445C53.5718 91.7483 40.6641 81.8498 40.6641 55.6897V0.945312H43.5009V55.6897C43.5009 81.0418 55.4158 90.3342 68.0399 100.132C80.8058 110.03 93.9973 120.232 93.9973 147.503C93.9973 174.774 80.8058 184.975 68.0399 194.874C55.4158 204.671 43.5009 213.964 43.5009 239.316V294.06V293.858Z" fill="#969696"/>
</g>
<g style="mix-blend-mode:multiply" opacity="0.1">
<path d="M44.6337 293.858H41.7969V239.114C41.7969 212.954 54.7047 202.954 67.1869 193.359C79.5273 183.763 92.2932 173.865 92.2932 147.402C92.2932 120.939 79.5273 111.04 67.1869 101.445C54.7047 91.7483 41.7969 81.8498 41.7969 55.6897V0.945312H44.6337V55.6897C44.6337 81.0418 56.5486 90.3342 69.1727 100.132C81.9386 110.03 95.1301 120.232 95.1301 147.503C95.1301 174.774 81.9386 184.975 69.1727 194.874C56.5486 204.671 44.6337 213.964 44.6337 239.316V294.06V293.858Z" fill="#9B9B9B"/>
</g>
<g style="mix-blend-mode:multiply" opacity="0.1">
<path d="M45.6337 293.858H42.7969V239.114C42.7969 212.954 55.7046 202.954 68.1868 193.359C80.5272 183.763 93.2932 173.865 93.2932 147.402C93.2932 120.939 80.5272 111.04 68.1868 101.445C55.7046 91.7483 42.7969 81.8498 42.7969 55.6897V0.945312H45.6337V55.6897C45.6337 81.0418 57.5486 90.3342 70.1727 100.132C82.9386 110.03 96.1301 120.232 96.1301 147.503C96.1301 174.774 82.9386 184.975 70.1727 194.874C57.5486 204.671 45.6337 213.964 45.6337 239.316V294.06V293.858Z" fill="#9F9F9F"/>
</g>
<g style="mix-blend-mode:multiply" opacity="0.1">
<path d="M46.7666 293.858H43.9297V239.114C43.9297 212.954 56.8375 202.954 69.3197 193.359C81.6601 183.763 94.426 173.865 94.426 147.402C94.426 120.939 81.6601 111.04 69.3197 101.445C56.8375 91.7483 43.9297 81.8498 43.9297 55.6897V0.945312H46.7666V55.6897C46.7666 81.0418 58.6814 90.3342 71.3055 100.132C84.0714 110.03 97.2629 120.232 97.2629 147.503C97.2629 174.774 84.0714 184.975 71.3055 194.874C58.6814 204.671 46.7666 213.964 46.7666 239.316V294.06V293.858Z" fill="#A3A3A3"/>
</g>
<g style="mix-blend-mode:multiply" opacity="0.1">
<path d="M47.8994 293.858H45.0625V239.114C45.0625 212.954 57.9703 202.954 70.4526 193.359C82.793 183.763 95.5589 173.865 95.5589 147.402C95.5589 120.939 82.793 111.04 70.4526 101.445C57.9703 91.7483 45.0625 81.8498 45.0625 55.6897V0.945312H47.8994V55.6897C47.8994 81.0418 59.8142 90.3342 72.4383 100.132C85.2043 110.03 98.3958 120.232 98.3958 147.503C98.3958 174.774 85.2043 184.975 72.4383 194.874C59.8142 204.671 47.8994 213.964 47.8994 239.316V294.06V293.858Z" fill="#A7A7A7"/>
</g>
</g>
</g>
</svg>
