<svg width="122" height="295" viewBox="0 0 122 295" fill="none" xmlns="http://www.w3.org/2000/svg">
<g opacity="0.08">
<g style="mix-blend-mode:multiply" opacity="0.6">
<g style="mix-blend-mode:multiply" opacity="0.3">
<path d="M3.24312 293.858H0.40625V239.114C0.40625 212.954 13.3141 202.954 25.7963 193.359C38.1367 183.763 50.9026 173.865 50.9026 147.402C50.9026 120.939 38.1367 111.04 25.7963 101.445C13.3141 91.7483 0.40625 81.8498 0.40625 55.6897V0.945312H3.24312V55.6897C3.24312 81.0418 15.158 90.3342 27.7821 100.132C40.548 110.03 53.7395 120.232 53.7395 147.503C53.7395 174.774 40.548 184.975 27.7821 194.874C15.158 204.671 3.24312 213.964 3.24312 239.316V294.06V293.858Z" fill="black"/>
</g>
<g style="mix-blend-mode:multiply" opacity="0.3">
<path d="M4.37594 293.858H1.53906V239.114C1.53906 212.954 14.4469 202.954 26.9291 193.359C39.2695 183.763 52.0355 173.865 52.0355 147.402C52.0355 120.939 39.2695 111.04 26.9291 101.445C14.4469 91.7483 1.53906 81.8498 1.53906 55.6897V0.945312H4.37594V55.6897C4.37594 81.0418 16.2908 90.3342 28.9149 100.132C41.6808 110.03 54.8724 120.232 54.8724 147.503C54.8724 174.774 41.6808 184.975 28.9149 194.874C16.2908 204.671 4.37594 213.964 4.37594 239.316V294.06V293.858Z" fill="#040404"/>
</g>
<g style="mix-blend-mode:multiply" opacity="0.3">
<path d="M5.50875 293.858H2.67188V239.114C2.67188 212.954 15.5797 202.954 28.0619 193.359C40.4023 183.763 53.1683 173.865 53.1683 147.402C53.1683 120.939 40.4023 111.04 28.0619 101.445C15.5797 91.7483 2.67188 81.8498 2.67188 55.6897V0.945312H5.50875V55.6897C5.50875 81.0418 17.4237 90.3342 30.0478 100.132C42.8137 110.03 56.0052 120.232 56.0052 147.503C56.0052 174.774 42.8137 184.975 30.0478 194.874C17.4237 204.671 5.50875 213.964 5.50875 239.316V294.06V293.858Z" fill="#080808"/>
</g>
<g style="mix-blend-mode:multiply" opacity="0.3">
<path d="M6.64937 293.858H3.8125V239.114C3.8125 212.954 16.7202 202.954 29.2025 193.359C41.5429 183.763 54.3088 173.865 54.3088 147.402C54.3088 120.939 41.5429 111.04 29.2025 101.445C16.7202 91.7483 3.8125 81.8498 3.8125 55.6897V0.945312H6.64937V55.6897C6.64937 81.0418 18.5642 90.3342 31.1883 100.132C43.9543 110.03 57.1457 120.232 57.1457 147.503C57.1457 174.774 43.9543 184.975 31.1883 194.874C18.5642 204.671 6.64937 213.964 6.64937 239.316V294.06V293.858Z" fill="#0D0D0D"/>
</g>
<g style="mix-blend-mode:multiply" opacity="0.3">
<path d="M7.78219 293.858H4.94531V239.114C4.94531 212.954 17.853 202.954 30.3353 193.359C42.6757 183.763 55.4416 173.865 55.4416 147.402C55.4416 120.939 42.6757 111.04 30.3353 101.445C17.853 91.7483 4.94531 81.8498 4.94531 55.6897V0.945312H7.78219V55.6897C7.78219 81.0418 19.697 90.3342 32.3211 100.132C45.0871 110.03 58.2785 120.232 58.2785 147.503C58.2785 174.774 45.0871 184.975 32.3211 194.874C19.697 204.671 7.78219 213.964 7.78219 239.316V294.06V293.858Z" fill="#111111"/>
</g>
<g style="mix-blend-mode:multiply" opacity="0.3">
<path d="M8.915 293.858H6.07812V239.114C6.07812 212.954 18.9859 202.954 31.4682 193.359C43.8086 183.763 56.5745 173.865 56.5745 147.402C56.5745 120.939 43.8086 111.04 31.4682 101.445C18.9859 91.7483 6.07812 81.8498 6.07812 55.6897V0.945312H8.915V55.6897C8.915 81.0418 20.8299 90.3342 33.4539 100.132C46.2199 110.03 59.4113 120.232 59.4113 147.503C59.4113 174.774 46.2199 184.975 33.4539 194.874C20.8299 204.671 8.915 213.964 8.915 239.316V294.06V293.858Z" fill="#151515"/>
</g>
<g style="mix-blend-mode:multiply" opacity="0.3">
<path d="M10.0556 293.858H7.21875V239.114C7.21875 212.954 20.1266 202.954 32.6088 193.359C44.9492 183.763 57.7152 173.865 57.7152 147.402C57.7152 120.939 44.9492 111.04 32.6088 101.445C20.1266 91.7483 7.21875 81.8498 7.21875 55.6897V0.945312H10.0556V55.6897C10.0556 81.0418 21.9705 90.3342 34.5946 100.132C47.3605 110.03 60.552 120.232 60.552 147.503C60.552 174.774 47.3605 184.975 34.5946 194.874C21.9705 204.671 10.0556 213.964 10.0556 239.316V294.06V293.858Z" fill="#191919"/>
</g>
<g style="mix-blend-mode:multiply" opacity="0.3">
<path d="M11.0478 293.858H8.21094V239.114C8.21094 212.954 21.1187 202.954 33.601 193.359C45.9414 183.763 58.7073 173.865 58.7073 147.402C58.7073 120.939 45.9414 111.04 33.601 101.445C21.1187 91.7483 8.21094 81.8498 8.21094 55.6897V0.945312H11.0478V55.6897C11.0478 81.0418 22.9627 90.3342 35.5868 100.132C48.3527 110.03 61.5441 120.232 61.5441 147.503C61.5441 174.774 48.3527 184.975 35.5868 194.874C22.9627 204.671 11.0478 213.964 11.0478 239.316V294.06V293.858Z" fill="#1D1D1D"/>
</g>
<g style="mix-blend-mode:multiply" opacity="0.3">
<path d="M12.1806 293.858H9.34375V239.114C9.34375 212.954 22.2516 202.954 34.7338 193.359C47.0742 183.763 59.8402 173.865 59.8402 147.402C59.8402 120.939 47.0742 111.04 34.7338 101.445C22.2516 91.7483 9.34375 81.8498 9.34375 55.6897V0.945312H12.1806V55.6897C12.1806 81.0418 24.0955 90.3342 36.7196 100.132C49.4855 110.03 62.677 120.232 62.677 147.503C62.677 174.774 49.4855 184.975 36.7196 194.874C24.0955 204.671 12.1806 213.964 12.1806 239.316V294.06V293.858Z" fill="#212121"/>
</g>
<g style="mix-blend-mode:multiply" opacity="0.3">
<path d="M13.3134 293.858H10.4766V239.114C10.4766 212.954 23.3844 202.954 35.8666 193.359C48.207 183.763 60.973 173.865 60.973 147.402C60.973 120.939 48.207 111.04 35.8666 101.445C23.3844 91.7483 10.4766 81.8498 10.4766 55.6897V0.945312H13.3134V55.6897C13.3134 81.0418 25.2284 90.3342 37.8525 100.132C50.6184 110.03 63.8099 120.232 63.8099 147.503C63.8099 174.774 50.6184 184.975 37.8525 194.874C25.2284 204.671 13.3134 213.964 13.3134 239.316V294.06V293.858Z" fill="#262626"/>
</g>
<g style="mix-blend-mode:multiply" opacity="0.3">
<path d="M14.4462 293.858H11.6094V239.114C11.6094 212.954 24.5171 202.954 36.9993 193.359C49.3397 183.763 62.1057 173.865 62.1057 147.402C62.1057 120.939 49.3397 111.04 36.9993 101.445C24.5171 91.7483 11.6094 81.8498 11.6094 55.6897V0.945312H14.4462V55.6897C14.4462 81.0418 26.3611 90.3342 38.9852 100.132C51.7511 110.03 64.9426 120.232 64.9426 147.503C64.9426 174.774 51.7511 184.975 38.9852 194.874C26.3611 204.671 14.4462 213.964 14.4462 239.316V294.06V293.858Z" fill="#2A2A2A"/>
</g>
<g style="mix-blend-mode:multiply" opacity="0.2">
<path d="M15.5791 293.858H12.7422V239.114C12.7422 212.954 25.6499 202.954 38.1322 193.359C50.4726 183.763 63.2385 173.865 63.2385 147.402C63.2385 120.939 50.4726 111.04 38.1322 101.445C25.6499 91.7483 12.7422 81.8498 12.7422 55.6897V0.945312H15.5791V55.6897C15.5791 81.0418 27.4939 90.3342 40.118 100.132C52.8839 110.03 66.0754 120.232 66.0754 147.503C66.0754 174.774 52.8839 184.975 40.118 194.874C27.4939 204.671 15.5791 213.964 15.5791 239.316V294.06V293.858Z" fill="#2E2E2E"/>
</g>
<g style="mix-blend-mode:multiply" opacity="0.2">
<path d="M16.7197 293.858H13.8828V239.114C13.8828 212.954 26.7906 202.954 39.2729 193.359C51.6133 183.763 64.3791 173.865 64.3791 147.402C64.3791 120.939 51.6133 111.04 39.2729 101.445C26.7906 91.7483 13.8828 81.8498 13.8828 55.6897V0.945312H16.7197V55.6897C16.7197 81.0418 28.6345 90.3342 41.2586 100.132C54.0246 110.03 67.216 120.232 67.216 147.503C67.216 174.774 54.0246 184.975 41.2586 194.874C28.6345 204.671 16.7197 213.964 16.7197 239.316V294.06V293.858Z" fill="#323232"/>
</g>
<g style="mix-blend-mode:multiply" opacity="0.2">
<path d="M17.8525 293.858H15.0156V239.114C15.0156 212.954 27.9234 202.954 40.4057 193.359C52.7461 183.763 65.512 173.865 65.512 147.402C65.512 120.939 52.7461 111.04 40.4057 101.445C27.9234 91.7483 15.0156 81.8498 15.0156 55.6897V0.945312H17.8525V55.6897C17.8525 81.0418 29.7674 90.3342 42.3914 100.132C55.1574 110.03 68.3489 120.232 68.3489 147.503C68.3489 174.774 55.1574 184.975 42.3914 194.874C29.7674 204.671 17.8525 213.964 17.8525 239.316V294.06V293.858Z" fill="#363636"/>
</g>
<g style="mix-blend-mode:multiply" opacity="0.2">
<path d="M18.8447 293.858H16.0078V239.114C16.0078 212.954 28.9156 202.954 41.3979 193.359C53.7383 183.763 66.5041 173.865 66.5041 147.402C66.5041 120.939 53.7383 111.04 41.3979 101.445C28.9156 91.7483 16.0078 81.8498 16.0078 55.6897V0.945312H18.8447V55.6897C18.8447 81.0418 30.7595 90.3342 43.3836 100.132C56.1496 110.03 69.341 120.232 69.341 147.503C69.341 174.774 56.1496 184.975 43.3836 194.874C30.7595 204.671 18.8447 213.964 18.8447 239.316V294.06V293.858Z" fill="#3B3B3B"/>
</g>
<g style="mix-blend-mode:multiply" opacity="0.2">
<path d="M19.9814 293.858H17.1445V239.114C17.1445 212.954 30.0523 202.954 42.5346 193.359C54.875 183.763 67.6409 173.865 67.6409 147.402C67.6409 120.939 54.875 111.04 42.5346 101.445C30.0523 91.7483 17.1445 81.8498 17.1445 55.6897V0.945312H19.9814V55.6897C19.9814 81.0418 31.8963 90.3342 44.5204 100.132C57.2863 110.03 70.4778 120.232 70.4778 147.503C70.4778 174.774 57.2863 184.975 44.5204 194.874C31.8963 204.671 19.9814 213.964 19.9814 239.316V294.06V293.858Z" fill="#3F3F3F"/>
</g>
<g style="mix-blend-mode:multiply" opacity="0.2">
<path d="M21.1143 293.858H18.2774V239.114C18.2774 212.954 31.1852 202.954 43.6675 193.359C56.0079 183.763 68.7739 173.865 68.7739 147.402C68.7739 120.939 56.0079 111.04 43.6675 101.445C31.1852 91.7483 18.2774 81.8498 18.2774 55.6897V0.945312H21.1143V55.6897C21.1143 81.0418 33.0293 90.3342 45.6533 100.132C58.4193 110.03 71.6107 120.232 71.6107 147.503C71.6107 174.774 58.4193 184.975 45.6533 194.874C33.0293 204.671 21.1143 213.964 21.1143 239.316V294.06V293.858Z" fill="#434343"/>
</g>
<g style="mix-blend-mode:multiply" opacity="0.2">
<path d="M22.251 293.858H19.4142V239.114C19.4142 212.954 32.3219 202.954 44.8041 193.359C57.1445 183.763 69.9105 173.865 69.9105 147.402C69.9105 120.939 57.1445 111.04 44.8041 101.445C32.3219 91.7483 19.4142 81.8498 19.4142 55.6897V0.945312H22.251V55.6897C22.251 81.0418 34.1659 90.3342 46.79 100.132C59.5559 110.03 72.7474 120.232 72.7474 147.503C72.7474 174.774 59.5559 184.975 46.79 194.874C34.1659 204.671 22.251 213.964 22.251 239.316V294.06V293.858Z" fill="#474747"/>
</g>
<g style="mix-blend-mode:multiply" opacity="0.2">
<path d="M23.3836 293.858H20.5467V239.114C20.5467 212.954 33.4544 202.954 45.9367 193.359C58.2771 183.763 71.043 173.865 71.043 147.402C71.043 120.939 58.2771 111.04 45.9367 101.445C33.4544 91.7483 20.5467 81.8498 20.5467 55.6897V0.945312H23.3836V55.6897C23.3836 81.0418 35.2985 90.3342 47.9225 100.132C60.6885 110.03 73.8799 120.232 73.8799 147.503C73.8799 174.774 60.6885 184.975 47.9225 194.874C35.2985 204.671 23.3836 213.964 23.3836 239.316V294.06V293.858Z" fill="#4B4B4B"/>
</g>
<g style="mix-blend-mode:multiply" opacity="0.2">
<path d="M24.5203 293.858H21.6834V239.114C21.6834 212.954 34.5913 202.954 47.0735 193.359C59.4139 183.763 72.1798 173.865 72.1798 147.402C72.1798 120.939 59.4139 111.04 47.0735 101.445C34.5913 91.7483 21.6834 81.8498 21.6834 55.6897V0.945312H24.5203V55.6897C24.5203 81.0418 36.4352 90.3342 49.0593 100.132C61.8252 110.03 75.0166 120.232 75.0166 147.503C75.0166 174.774 61.8252 184.975 49.0593 194.874C36.4352 204.671 24.5203 213.964 24.5203 239.316V294.06V293.858Z" fill="#4F4F4F"/>
</g>
<g style="mix-blend-mode:multiply" opacity="0.2">
<path d="M25.6572 293.858H22.8203V239.114C22.8203 212.954 35.7281 202.954 48.2104 193.359C60.5508 183.763 73.3167 173.865 73.3167 147.402C73.3167 120.939 60.5508 111.04 48.2104 101.445C35.7281 91.7483 22.8203 81.8498 22.8203 55.6897V0.945312H25.6572V55.6897C25.6572 81.0418 37.572 90.3342 50.1961 100.132C62.9621 110.03 76.1536 120.232 76.1536 147.503C76.1536 174.774 62.9621 184.975 50.1961 194.874C37.572 204.671 25.6572 213.964 25.6572 239.316V294.06V293.858Z" fill="#545454"/>
</g>
<g style="mix-blend-mode:multiply" opacity="0.2">
<path d="M26.79 293.858H23.9531V239.114C23.9531 212.954 36.8609 202.954 49.3432 193.359C61.6836 183.763 74.4495 173.865 74.4495 147.402C74.4495 120.939 61.6836 111.04 49.3432 101.445C36.8609 91.7483 23.9531 81.8498 23.9531 55.6897V0.945312H26.79V55.6897C26.79 81.0418 38.7049 90.3342 51.329 100.132C64.095 110.03 77.2864 120.232 77.2864 147.503C77.2864 174.774 64.095 184.975 51.329 194.874C38.7049 204.671 26.79 213.964 26.79 239.316V294.06V293.858Z" fill="#585858"/>
</g>
<g style="mix-blend-mode:multiply" opacity="0.2">
<path d="M27.7822 293.858H24.9453V239.114C24.9453 212.954 37.8531 202.954 50.3354 193.359C62.6758 183.763 75.4417 173.865 75.4417 147.402C75.4417 120.939 62.6758 111.04 50.3354 101.445C37.8531 91.7483 24.9453 81.8498 24.9453 55.6897V0.945312H27.7822V55.6897C27.7822 81.0418 39.697 90.3342 52.3211 100.132C65.0871 110.03 78.2786 120.232 78.2786 147.503C78.2786 174.774 65.0871 184.975 52.3211 194.874C39.697 204.671 27.7822 213.964 27.7822 239.316V294.06V293.858Z" fill="#5C5C5C"/>
</g>
<g style="mix-blend-mode:multiply" opacity="0.2">
<path d="M28.915 293.858H26.0781V239.114C26.0781 212.954 38.9859 202.954 51.4682 193.359C63.8086 183.763 76.5745 173.865 76.5745 147.402C76.5745 120.939 63.8086 111.04 51.4682 101.445C38.9859 91.7483 26.0781 81.8498 26.0781 55.6897V0.945312H28.915V55.6897C28.915 81.0418 40.8299 90.3342 53.454 100.132C66.22 110.03 79.4114 120.232 79.4114 147.503C79.4114 174.774 66.22 184.975 53.454 194.874C40.8299 204.671 28.915 213.964 28.915 239.316V294.06V293.858Z" fill="#606060"/>
</g>
<g style="mix-blend-mode:multiply" opacity="0.2">
<path d="M30.0517 293.858H27.2148V239.114C27.2148 212.954 40.1226 202.954 52.6048 193.359C64.9452 183.763 77.7112 173.865 77.7112 147.402C77.7112 120.939 64.9452 111.04 52.6048 101.445C40.1226 91.7483 27.2148 81.8498 27.2148 55.6897V0.945312H30.0517V55.6897C30.0517 81.0418 41.9666 90.3342 54.5907 100.132C67.3566 110.03 80.548 120.232 80.548 147.503C80.548 174.774 67.3566 184.975 54.5907 194.874C41.9666 204.671 30.0517 213.964 30.0517 239.316V294.06V293.858Z" fill="#646464"/>
</g>
<g style="mix-blend-mode:multiply" opacity="0.2">
<path d="M31.1806 293.858H28.3438V239.114C28.3438 212.954 41.2515 202.954 53.7337 193.359C66.0741 183.763 78.8401 173.865 78.8401 147.402C78.8401 120.939 66.0741 111.04 53.7337 101.445C41.2515 91.7483 28.3438 81.8498 28.3438 55.6897V0.945312H31.1806V55.6897C31.1806 81.0418 43.0955 90.3342 55.7196 100.132C68.4855 110.03 81.677 120.232 81.677 147.503C81.677 174.774 68.4855 184.975 55.7196 194.874C43.0955 204.671 31.1806 213.964 31.1806 239.316V294.06V293.858Z" fill="#696969"/>
</g>
<g style="mix-blend-mode:multiply" opacity="0.2">
<path d="M32.3212 293.858H29.4844V239.114C29.4844 212.954 42.3922 202.954 54.8744 193.359C67.2148 183.763 79.9807 173.865 79.9807 147.402C79.9807 120.939 67.2148 111.04 54.8744 101.445C42.3922 91.7483 29.4844 81.8498 29.4844 55.6897V0.945312H32.3212V55.6897C32.3212 81.0418 44.2361 90.3342 56.8602 100.132C69.6261 110.03 82.8176 120.232 82.8176 147.503C82.8176 174.774 69.6261 184.975 56.8602 194.874C44.2361 204.671 32.3212 213.964 32.3212 239.316V294.06V293.858Z" fill="#6D6D6D"/>
</g>
<g style="mix-blend-mode:multiply" opacity="0.2">
<path d="M33.4541 293.858H30.6172V239.114C30.6172 212.954 43.525 202.954 56.0072 193.359C68.3477 183.763 81.1136 173.865 81.1136 147.402C81.1136 120.939 68.3477 111.04 56.0072 101.445C43.525 91.7483 30.6172 81.8498 30.6172 55.6897V0.945312H33.4541V55.6897C33.4541 81.0418 45.3689 90.3342 57.993 100.132C70.7589 110.03 83.9505 120.232 83.9505 147.503C83.9505 174.774 70.7589 184.975 57.993 194.874C45.3689 204.671 33.4541 213.964 33.4541 239.316V294.06V293.858Z" fill="#717171"/>
</g>
<g style="mix-blend-mode:multiply" opacity="0.2">
<path d="M34.5869 293.858H31.75V239.114C31.75 212.954 44.6578 202.954 57.1401 193.359C69.4805 183.763 82.2464 173.865 82.2464 147.402C82.2464 120.939 69.4805 111.04 57.1401 101.445C44.6578 91.7483 31.75 81.8498 31.75 55.6897V0.945312H34.5869V55.6897C34.5869 81.0418 46.5018 90.3342 59.1259 100.132C71.8918 110.03 85.0833 120.232 85.0833 147.503C85.0833 174.774 71.8918 184.975 59.1259 194.874C46.5018 204.671 34.5869 213.964 34.5869 239.316V294.06V293.858Z" fill="#757575"/>
</g>
<g style="mix-blend-mode:multiply" opacity="0.2">
<path d="M35.583 293.858H32.7461V239.114C32.7461 212.954 45.6539 202.954 58.1362 193.359C70.4766 183.763 83.2425 173.865 83.2425 147.402C83.2425 120.939 70.4766 111.04 58.1362 101.445C45.6539 91.7483 32.7461 81.8498 32.7461 55.6897V0.945312H35.583V55.6897C35.583 81.0418 47.4978 90.3342 60.1219 100.132C72.8879 110.03 86.0794 120.232 86.0794 147.503C86.0794 174.774 72.8879 184.975 60.1219 194.874C47.4978 204.671 35.583 213.964 35.583 239.316V294.06V293.858Z" fill="#797979"/>
</g>
<g style="mix-blend-mode:multiply" opacity="0.2">
<path d="M36.7197 293.858H33.8828V239.114C33.8828 212.954 46.7906 202.954 59.2729 193.359C71.6133 183.763 84.3792 173.865 84.3792 147.402C84.3792 120.939 71.6133 111.04 59.2729 101.445C46.7906 91.7483 33.8828 81.8498 33.8828 55.6897V0.945312H36.7197V55.6897C36.7197 81.0418 48.6346 90.3342 61.2587 100.132C74.0247 110.03 87.2161 120.232 87.2161 147.503C87.2161 174.774 74.0247 184.975 61.2587 194.874C48.6346 204.671 36.7197 213.964 36.7197 239.316V294.06V293.858Z" fill="#7D7D7D"/>
</g>
<g style="mix-blend-mode:multiply" opacity="0.1">
<path d="M37.8525 293.858H35.0156V239.114C35.0156 212.954 47.9234 202.954 60.4056 193.359C72.746 183.763 85.512 173.865 85.512 147.402C85.512 120.939 72.746 111.04 60.4056 101.445C47.9234 91.7483 35.0156 81.8498 35.0156 55.6897V0.945312H37.8525V55.6897C37.8525 81.0418 49.7674 90.3342 62.3914 100.132C75.1574 110.03 88.3488 120.232 88.3488 147.503C88.3488 174.774 75.1574 184.975 62.3914 194.874C49.7674 204.671 37.8525 213.964 37.8525 239.316V294.06V293.858Z" fill="#828282"/>
</g>
<g style="mix-blend-mode:multiply" opacity="0.1">
<path d="M38.9853 293.858H36.1484V239.114C36.1484 212.954 49.0562 202.954 61.5384 193.359C73.8788 183.763 86.6448 173.865 86.6448 147.402C86.6448 120.939 73.8788 111.04 61.5384 101.445C49.0562 91.7483 36.1484 81.8498 36.1484 55.6897V0.945312H38.9853V55.6897C38.9853 81.0418 50.9002 90.3342 63.5243 100.132C76.2902 110.03 89.4816 120.232 89.4816 147.503C89.4816 174.774 76.2902 184.975 63.5243 194.874C50.9002 204.671 38.9853 213.964 38.9853 239.316V294.06V293.858Z" fill="#868686"/>
</g>
<g style="mix-blend-mode:multiply" opacity="0.1">
<path d="M40.1222 293.858H37.2853V239.114C37.2853 212.954 50.1932 202.954 62.6754 193.359C75.0158 183.763 87.7817 173.865 87.7817 147.402C87.7817 120.939 75.0158 111.04 62.6754 101.445C50.1932 91.7483 37.2853 81.8498 37.2853 55.6897V0.945312H40.1222V55.6897C40.1222 81.0418 52.0371 90.3342 64.6612 100.132C77.4271 110.03 90.6185 120.232 90.6185 147.503C90.6185 174.774 77.4271 184.975 64.6612 194.874C52.0371 204.671 40.1222 213.964 40.1222 239.316V294.06V293.858Z" fill="#8A8A8A"/>
</g>
<g style="mix-blend-mode:multiply" opacity="0.1">
<path d="M41.2587 293.858H38.4219V239.114C38.4219 212.954 51.3297 202.954 63.8119 193.359C76.1523 183.763 88.9183 173.865 88.9183 147.402C88.9183 120.939 76.1523 111.04 63.8119 101.445C51.3297 91.7483 38.4219 81.8498 38.4219 55.6897V0.945312H41.2587V55.6897C41.2587 81.0418 53.1736 90.3342 65.7977 100.132C78.5636 110.03 91.7552 120.232 91.7552 147.503C91.7552 174.774 78.5636 184.975 65.7977 194.874C53.1736 204.671 41.2587 213.964 41.2587 239.316V294.06V293.858Z" fill="#8E8E8E"/>
</g>
<g style="mix-blend-mode:multiply" opacity="0.1">
<path d="M42.3915 293.858H39.5546V239.114C39.5546 212.954 52.4624 202.954 64.9447 193.359C77.2851 183.763 90.051 173.865 90.051 147.402C90.051 120.939 77.2851 111.04 64.9447 101.445C52.4624 91.7483 39.5546 81.8498 39.5546 55.6897V0.945312H42.3915V55.6897C42.3915 81.0418 54.3064 90.3342 66.9305 100.132C79.6965 110.03 92.8879 120.232 92.8879 147.503C92.8879 174.774 79.6965 184.975 66.9305 194.874C54.3064 204.671 42.3915 213.964 42.3915 239.316V294.06V293.858Z" fill="#929292"/>
</g>
<g style="mix-blend-mode:multiply" opacity="0.1">
<path d="M43.3837 293.858H40.5469V239.114C40.5469 212.954 53.4547 202.954 65.9369 193.359C78.2773 183.763 91.0433 173.865 91.0433 147.402C91.0433 120.939 78.2773 111.04 65.9369 101.445C53.4547 91.7483 40.5469 81.8498 40.5469 55.6897V0.945312H43.3837V55.6897C43.3837 81.0418 55.2986 90.3342 67.9227 100.132C80.6886 110.03 93.8802 120.232 93.8802 147.503C93.8802 174.774 80.6886 184.975 67.9227 194.874C55.2986 204.671 43.3837 213.964 43.3837 239.316V294.06V293.858Z" fill="#969696"/>
</g>
<g style="mix-blend-mode:multiply" opacity="0.1">
<path d="M44.5166 293.858H41.6797V239.114C41.6797 212.954 54.5875 202.954 67.0697 193.359C79.4102 183.763 92.1761 173.865 92.1761 147.402C92.1761 120.939 79.4102 111.04 67.0697 101.445C54.5875 91.7483 41.6797 81.8498 41.6797 55.6897V0.945312H44.5166V55.6897C44.5166 81.0418 56.4315 90.3342 69.0556 100.132C81.8215 110.03 95.013 120.232 95.013 147.503C95.013 174.774 81.8215 184.975 69.0556 194.874C56.4315 204.671 44.5166 213.964 44.5166 239.316V294.06V293.858Z" fill="#9B9B9B"/>
</g>
<g style="mix-blend-mode:multiply" opacity="0.1">
<path d="M45.6572 293.858H42.8203V239.114C42.8203 212.954 55.728 202.954 68.2103 193.359C80.5507 183.763 93.3166 173.865 93.3166 147.402C93.3166 120.939 80.5507 111.04 68.2103 101.445C55.728 91.7483 42.8203 81.8498 42.8203 55.6897V0.945312H45.6572V55.6897C45.6572 81.0418 57.572 90.3342 70.1961 100.132C82.9621 110.03 96.1535 120.232 96.1535 147.503C96.1535 174.774 82.9621 184.975 70.1961 194.874C57.572 204.671 45.6572 213.964 45.6572 239.316V294.06V293.858Z" fill="#9F9F9F"/>
</g>
<g style="mix-blend-mode:multiply" opacity="0.1">
<path d="M46.79 293.858H43.9531V239.114C43.9531 212.954 56.8609 202.954 69.3431 193.359C81.6835 183.763 94.4495 173.865 94.4495 147.402C94.4495 120.939 81.6835 111.04 69.3431 101.445C56.8609 91.7483 43.9531 81.8498 43.9531 55.6897V0.945312H46.79V55.6897C46.79 81.0418 58.7049 90.3342 71.3289 100.132C84.0949 110.03 97.2863 120.232 97.2863 147.503C97.2863 174.774 84.0949 184.975 71.3289 194.874C58.7049 204.671 46.79 213.964 46.79 239.316V294.06V293.858Z" fill="#A3A3A3"/>
</g>
<g style="mix-blend-mode:multiply" opacity="0.1">
<path d="M47.9228 293.858H45.0859V239.114C45.0859 212.954 57.9937 202.954 70.476 193.359C82.8164 183.763 95.5823 173.865 95.5823 147.402C95.5823 120.939 82.8164 111.04 70.476 101.445C57.9937 91.7483 45.0859 81.8498 45.0859 55.6897V0.945312H47.9228V55.6897C47.9228 81.0418 59.8377 90.3342 72.4618 100.132C85.2277 110.03 98.4191 120.232 98.4191 147.503C98.4191 174.774 85.2277 184.975 72.4618 194.874C59.8377 204.671 47.9228 213.964 47.9228 239.316V294.06V293.858Z" fill="#A7A7A7"/>
</g>
</g>
</g>
</svg>
