<svg width="31" height="32" viewBox="0 0 31 32" fill="none" xmlns="http://www.w3.org/2000/svg">
<path d="M1.14281 26.346H24.6198V12.9082H1.14281V26.346ZM3.30261 16.6911C3.55023 16.6911 3.79543 16.6424 4.02419 16.5476C4.25295 16.4528 4.46081 16.3139 4.63587 16.1388C4.81094 15.9636 4.94979 15.7557 5.04449 15.5269C5.13919 15.2982 5.18789 15.0529 5.18781 14.8053H20.5741C20.5741 15.3055 20.7728 15.7851 21.1265 16.1388C21.4801 16.4925 21.9598 16.6911 22.46 16.6911V22.558C21.9598 22.558 21.4801 22.7567 21.1265 23.1104C20.7728 23.464 20.5741 23.9437 20.5741 24.4439H5.18781C5.18789 24.1962 5.13919 23.951 5.04449 23.7222C4.94979 23.4934 4.81094 23.2855 4.63587 23.1104C4.46081 22.9353 4.25295 22.7964 4.02419 22.7016C3.79543 22.6068 3.55023 22.558 3.30261 22.558V16.6911Z" fill="white"/>
<path d="M12.8836 22.4597C14.4459 22.4597 15.7124 21.1933 15.7124 19.631C15.7124 18.0687 14.4459 16.8022 12.8836 16.8022C11.3214 16.8022 10.0549 18.0687 10.0549 19.631C10.0549 21.1933 11.3214 22.4597 12.8836 22.4597Z" fill="white"/>
<path d="M2.37793 11.9717H25.564V22.8178L27.4573 22.6171L26.053 9.25708L2.37793 11.9717Z" fill="white"/>
<path d="M27.454 5.63501L3.65288 10.6593L26.8897 8.218L28.0558 19.3023L29.9868 18.8383L27.454 5.63501Z" fill="white"/>
</svg>
