<svg width="31" height="32" viewBox="0 0 31 32" fill="none" xmlns="http://www.w3.org/2000/svg">
<g clip-path="url(#clip0_2_663)">
<path d="M0.894623 26.3458H24.3716V12.908H0.894623V26.3458ZM3.05442 16.6909C3.30205 16.6909 3.54724 16.6421 3.77601 16.5473C4.00477 16.4526 4.21262 16.3136 4.38769 16.1385C4.56275 15.9634 4.7016 15.7555 4.79631 15.5267C4.89101 15.2979 4.93971 15.0527 4.93963 14.8051H20.3259C20.3259 15.3052 20.5246 15.7849 20.8783 16.1386C21.232 16.4922 21.7116 16.6909 22.2118 16.6909V22.5578C21.7116 22.5578 21.232 22.7565 20.8783 23.1101C20.5246 23.4638 20.3259 23.9435 20.3259 24.4436H4.93963C4.93971 24.196 4.89101 23.9508 4.79631 23.722C4.7016 23.4932 4.56275 23.2853 4.38769 23.1102C4.21262 22.9351 4.00477 22.7961 3.77601 22.7014C3.54724 22.6066 3.30205 22.5578 3.05442 22.5578V16.6909Z" fill="white"/>
<path d="M12.6333 22.4595C14.1956 22.4595 15.4621 21.193 15.4621 19.6307C15.4621 18.0685 14.1956 16.802 12.6333 16.802C11.0711 16.802 9.8046 18.0685 9.8046 19.6307C9.8046 21.193 11.0711 22.4595 12.6333 22.4595Z" fill="white"/>
<path d="M2.12764 11.9715H25.3137V22.8175L27.2071 22.6169L25.8027 9.25684L2.12764 11.9715Z" fill="white"/>
<path d="M27.2058 5.63477L3.40468 10.659L26.6415 8.21775L27.8076 19.302L29.7386 18.8381L27.2058 5.63477Z" fill="white"/>
</g>
<defs>
<clipPath id="clip0_2_663">
<rect width="30.093" height="30.093" fill="white" transform="translate(0.324295 0.939941)"/>
</clipPath>
</defs>
</svg>
