<svg width="52" height="51" viewBox="0 0 52 51" fill="none" xmlns="http://www.w3.org/2000/svg">
<g clip-path="url(#clip0_2_366)">
<path d="M25.908 34.2405C29.4631 34.2405 33.0033 33.7269 35.8763 32.7944C39.1725 31.7246 40.8438 30.3697 40.8438 28.7677V16.3162C40.8438 15.4944 40.1775 14.8281 39.3557 14.8281H12.4604C11.6386 14.8281 10.9723 15.4944 10.9723 16.3162V28.7677C10.9723 30.3697 12.6436 31.7246 15.9398 32.7944C18.8128 33.7269 22.3529 34.2405 25.908 34.2405Z" fill="#126BAB"/>
<path d="M12.4601 14.8281H25.8086V34.2396C22.287 34.2301 18.7858 33.7183 15.9395 32.7944C12.6433 31.7246 10.972 30.3697 10.972 28.7677V16.3162C10.972 15.4944 11.6383 14.8281 12.4601 14.8281Z" fill="#051460"/>
<path d="M5.57444 46.6011C6.39625 46.6011 7.0625 45.9349 7.0625 45.1131V15.8631C7.0625 15.0413 6.39625 14.375 5.57444 14.375C4.75263 14.375 4.08638 15.0413 4.08638 15.8631V45.1131C4.08638 45.9349 4.75263 46.6011 5.57444 46.6011Z" fill="#ED1A24"/>
<path d="M5.57398 38.3286C3.92346 38.3286 2.58546 36.9906 2.58546 35.3401C2.58546 33.6896 3.92346 32.3516 5.57398 32.3516C7.22449 32.3516 8.5625 33.6896 8.5625 35.3401C8.5625 36.9906 7.22449 38.3286 5.57398 38.3286Z" fill="#C10D15"/>
<path d="M25.9084 24.2783C26.0771 24.2783 26.2456 24.2496 26.4068 24.1923L50.315 15.6928C50.9089 15.4817 51.3053 14.9193 51.3046 14.2889C51.3039 13.6586 50.906 13.0972 50.3117 12.8875L26.4036 4.45207C26.0832 4.33898 25.7337 4.33898 25.4134 4.45207L1.50524 12.8875C0.910805 13.0972 0.5131 13.6587 0.512306 14.2889C0.511509 14.9193 0.908024 15.4817 1.50196 15.6928L25.4101 24.1923C25.5712 24.2496 25.7398 24.2783 25.9084 24.2783Z" fill="#53B7F5"/>
<path d="M1.5045 12.8911L25.4127 4.45565C25.5412 4.41032 25.6745 4.38403 25.8086 4.375V24.2777C25.6733 24.2687 25.539 24.242 25.4094 24.196L1.50123 15.6965C0.907297 15.4854 0.510876 14.923 0.51157 14.2926C0.512365 13.6623 0.910173 13.1008 1.5045 12.8911Z" fill="#2698D1"/>
<path d="M0.512234 14.2878C0.513027 13.6574 0.910835 13.096 1.50517 12.8863L2.00218 12.7109L25.8093 21.1745L49.9364 12.7539L50.3118 12.8863C50.9061 13.096 51.3039 13.6575 51.3047 14.2878C51.3055 14.9181 50.909 15.4805 50.315 15.6916L26.4069 24.1911C26.1701 24.2771 25.9504 24.2771 25.9085 24.2771C25.7398 24.2771 25.5713 24.2485 25.4101 24.1911L1.5014 15.6914C0.907661 15.4802 0.51144 14.9179 0.512234 14.2878Z" fill="#C00A13"/>
<path d="M1.50451 12.8863L2.00152 12.7109L25.8086 21.1745V24.2729C25.6733 24.2638 25.539 24.2372 25.4094 24.1911L1.50074 15.6914C0.907101 15.4802 0.51088 14.9179 0.511673 14.2878C0.512367 13.6575 0.910175 13.096 1.50451 12.8863Z" fill="#ED1A24"/>
</g>
<defs>
<clipPath id="clip0_2_366">
<rect width="50.7925" height="50.7925" fill="white" transform="matrix(-1 0 0 1 51.3047 0.0859375)"/>
</clipPath>
</defs>
</svg>
