<svg width="10" height="10" viewBox="0 0 10 10" fill="none" xmlns="http://www.w3.org/2000/svg">
<path d="M8.9925 0.988281H8.06065V2.07634C8.06065 2.43929 7.76538 2.63949 7.40246 2.63949H7.2705C6.90755 2.63949 6.61228 2.3442 6.61228 1.98124V0.988281H3.40354V1.99024C3.40354 2.35319 3.10827 2.64848 2.74531 2.64848H2.61336C2.25042 2.64848 1.95515 2.35319 1.95515 1.99024V0.988281H0.949769C0.624298 0.988281 0.359497 1.25308 0.359497 1.57857V8.71125C0.359497 9.03674 0.624298 9.30154 0.949769 9.30154H8.9925C9.31797 9.30154 9.58275 9.03674 9.58275 8.71125V1.57857C9.58279 1.2531 9.31797 0.988281 8.9925 0.988281ZM8.9925 8.71125H0.949788L0.949769 3.32483H8.99261L8.99292 8.71123C8.99288 8.71123 8.99276 8.71125 8.9925 8.71125Z" fill="white"/>
</svg>
