<svg width="50" height="50" viewBox="0 0 50 50" fill="none" xmlns="http://www.w3.org/2000/svg">
<path d="M24.97 0C36.62 0 47.0135 8.36313 49.4506 19.7514C50.6681 25.4417 49.8479 31.4925 47.1315 36.6413C44.5172 41.5965 40.2312 45.6013 35.1033 47.871C29.7694 50.2323 23.6459 50.6438 18.0397 49.0335C12.6311 47.4805 7.83555 44.0719 4.57067 39.4964C-2.25568 29.9306 -1.34299 16.4938 6.68816 7.92233C11.3951 2.89897 18.0805 0 24.97 0ZM12.9609 26.3379L19.7853 33.3181C21.5131 35.0858 24.2442 32.4079 22.5234 30.6485L19.0799 27.1265H35.3986C36.5575 27.1265 37.5244 26.1602 37.5244 25.0034C37.5244 23.8466 36.5568 22.8803 35.3986 22.8803H19.1616L22.6733 19.3736C24.4183 17.6308 21.7127 14.928 19.9677 16.6708L12.9768 23.6523C12.2357 24.3919 12.2287 25.5894 12.9609 26.3379Z" fill="#A2A2A2"/>
</svg>
