<svg width="18" height="17" viewBox="0 0 18 17" fill="none" xmlns="http://www.w3.org/2000/svg">
<path d="M7.07019 11.2733L12.8223 7.61041L7.07019 3.94752V11.2733ZM5.93062 16.2386V14.5156H1.83361C1.49445 14.5156 1.18243 14.38 0.924672 14.1222C0.666913 13.8645 0.53125 13.566 0.53125 13.2133V2.02111C0.53125 1.68195 0.666913 1.36993 0.924672 1.11217C1.18243 0.854413 1.48089 0.71875 1.83361 0.71875H16.4852C16.8243 0.71875 17.1364 0.854413 17.3941 1.11217C17.6519 1.36993 17.7875 1.66839 17.7875 2.02111V13.2268C17.7875 13.566 17.6519 13.878 17.3941 14.1358C17.1364 14.3935 16.8379 14.5292 16.4852 14.5292H12.3882V16.2521H5.93062V16.2386ZM1.83361 13.2133H16.4852V2.02111H1.83361V13.2133Z" fill="black"/>
</svg>
