<svg width="49" height="50" viewBox="0 0 49 50" fill="none" xmlns="http://www.w3.org/2000/svg">
<path d="M24.5294 0C13.1124 0 2.92674 8.36313 0.53846 19.7514C-0.654745 25.4417 0.149059 31.4925 2.81111 36.6413C5.37315 41.5965 9.57343 45.6013 14.5988 47.871C19.826 50.2323 25.827 50.6438 31.3211 49.0335C36.6215 47.4805 41.3212 44.0719 44.5207 39.4964C51.2106 29.9306 50.3161 16.4938 42.4456 7.92233C37.8328 2.89897 31.2811 0 24.5294 0ZM36.2983 26.3379L29.6104 33.3181C27.9171 35.0858 25.2407 32.4079 26.9271 30.6485L30.3017 27.1265H14.3094C13.1737 27.1265 12.2261 26.1602 12.2261 25.0034C12.2261 23.8466 13.1743 22.8803 14.3094 22.8803H30.2217L26.7802 19.3736C25.0701 17.6308 27.7215 14.928 29.4316 16.6708L36.2827 23.6523C37.009 24.3919 37.0159 25.5894 36.2983 26.3379Z" fill="#A2A2A2"/>
</svg>
