<svg width="24" height="15" viewBox="0 0 24 15" fill="none" xmlns="http://www.w3.org/2000/svg">
<path d="M0.389709 14.1119H23.8667V0.674072H0.389709V14.1119ZM2.54951 4.45702C2.79713 4.45702 3.04233 4.40823 3.27109 4.31345C3.49986 4.21867 3.70771 4.07976 3.88277 3.90463C4.05784 3.72951 4.19669 3.52161 4.29139 3.29282C4.3861 3.06402 4.4348 2.81881 4.43471 2.57119H19.821C19.821 3.07134 20.0197 3.55101 20.3734 3.90467C20.727 4.25833 21.2067 4.45702 21.7069 4.45702V10.3239C21.2067 10.3239 20.727 10.5226 20.3734 10.8763C20.0197 11.2299 19.821 11.7096 19.821 12.2097H4.43471C4.4348 11.9621 4.3861 11.7169 4.29139 11.4881C4.19669 11.2593 4.05784 11.0514 3.88277 10.8763C3.70771 10.7012 3.49986 10.5622 3.27109 10.4675C3.04233 10.3727 2.79713 10.3239 2.54951 10.3239V4.45702Z" fill="white"/>
</svg>
