<svg width="9" height="10" viewBox="0 0 9 10" fill="none" xmlns="http://www.w3.org/2000/svg">
<path d="M7.06022 3.4958C7.2923 3.29406 7.42424 3.00133 7.42424 2.69342V1.06743H8.03095C8.1978 1.06743 8.33431 0.930913 8.33431 0.76406C8.33431 0.597207 8.1978 0.460693 8.03097 0.460693H7.42426H1.66044H1.05373C0.88688 0.460693 0.750366 0.597207 0.750366 0.76406C0.750366 0.930913 0.88688 1.06743 1.05373 1.06743H1.66044V2.84208C1.66044 3.15151 1.79392 3.44576 2.02903 3.6475L3.37593 4.81542C3.47756 4.90341 3.53521 5.02777 3.53521 5.16277C3.53521 5.29777 3.47908 5.42213 3.37593 5.51012L2.02903 6.67652C1.79392 6.87978 1.66044 7.17403 1.66044 7.48345V9.25811H1.05373C0.88688 9.25811 0.750366 9.39462 0.750366 9.56148C0.750366 9.72833 0.88688 9.86484 1.05373 9.86484H1.66044H7.42424H8.03095C8.1978 9.86484 8.33431 9.72833 8.33431 9.56148C8.33431 9.39462 8.1978 9.25811 8.03095 9.25811H7.42424V7.63212C7.42424 7.32421 7.29076 7.03147 7.06022 6.82973L5.5495 5.5086C5.44787 5.42061 5.39328 5.29777 5.39328 5.16277C5.39328 5.02777 5.44941 4.90492 5.5495 4.81694L7.06022 3.4958ZM5.15057 5.96513L6.66129 7.28626C6.7614 7.37425 6.81751 7.50013 6.81751 7.63209V9.25809H2.26715V7.48343C2.26715 7.34995 2.3248 7.22407 2.42491 7.13608L3.77181 5.96968C4.0054 5.76642 4.1404 5.47369 4.1404 5.16426C4.1404 4.85483 4.00692 4.56058 3.77181 4.35884L2.42491 3.19092C2.3248 3.10294 2.26715 2.97554 2.26715 2.84206V1.0674H6.81753V2.69339C6.81753 2.82536 6.75988 2.95124 6.65977 3.03923L5.14905 4.36036C4.91849 4.5621 4.78503 4.85483 4.78503 5.16274C4.78503 5.47066 4.91851 5.76339 5.15057 5.96513Z" fill="white"/>
</svg>
