<svg width="5" height="7" viewBox="0 0 5 7" fill="none" xmlns="http://www.w3.org/2000/svg">
<path d="M4.51835 0.695044V0.452355C4.51835 0.358306 4.44252 0.282471 4.34998 0.282471H0.743076C0.650543 0.282471 0.574707 0.358306 0.574707 0.450839V0.843683C0.574707 0.933185 0.614141 1.01812 0.680882 1.07576L2.00656 2.22549C2.17038 2.36807 2.30538 2.54554 2.37667 2.75031C2.54959 3.24175 2.39791 3.76352 2.02781 4.08356L0.680906 5.25149C0.614165 5.31065 0.574731 5.39406 0.574731 5.48357V6.81986C0.574731 6.89569 0.63541 6.95637 0.709729 6.95637H4.3834C4.45772 6.95637 4.5184 6.89569 4.5184 6.82137V5.63372C4.5184 5.54422 4.48048 5.4608 4.41374 5.40164L2.92881 4.10175C2.76651 3.95918 2.63305 3.78323 2.56022 3.57997C2.38579 3.09005 2.53594 2.56979 2.90302 2.24672L4.41374 0.925582C4.48043 0.86796 4.51835 0.783005 4.51835 0.695044Z" fill="white"/>
</svg>
